<?xml version="1.0"?>
<!-- Converted with SVG Converter - Version 0.9.5 (Compiled Mon May 30 09:08:51 2011) - Copyright (C) 2011 Nokia -->
<svg xmlns="http://www.w3.org/2000/svg" width="96px" x="0px" version="1.1" y="0px" height="96px" viewBox="-7.977 -6.375 96 96" xmlns:xlink="http://www.w3.org/1999/xlink" baseProfile="tiny" xml:space="preserve">
 <path stroke-opacity="0.4" fill="#010101" fill-opacity="0.4" id="SHADOW_3_" d="M80.047,41.625c0,29.633-10.364,40-40,40&#xd;&#xa;&#x9;c-29.635,0-40-10.367-40-40c0-29.635,10.366-40,40-40C69.683,1.625,80.047,11.99,80.047,41.625z"/>
 <linearGradient gradientTransform="matrix(1 0 0 -1 -249.5996 -288.6504)" id="BLUE_1_5_" y1="-289.2856" x1="289.623" y2="-369.2637" gradientUnits="userSpaceOnUse" x2="289.623">
  <stop offset="0" style="stop-color:#3F403F"/>
  <stop offset="1" style="stop-color:#232323"/>
 </linearGradient>
 <path fill="url(#BLUE_1_5_)" id="BLUE_1_4_" d="M0.023,40.614c0,29.633,10.365,40,40,40c29.637,0,40-10.366,40-40&#xd;&#xa;&#x9;c0-28.985-9.926-39.53-38.091-39.979h-3.817C9.952,1.084,0.023,11.629,0.023,40.614z"/>
 <linearGradient gradientTransform="matrix(1 0 0 -1 -249.5996 -288.6504)" id="HIGHLIGHT_BLU1_4_" y1="-289.5313" x1="289.623" y2="-368.7797" gradientUnits="userSpaceOnUse" x2="289.623">
  <stop offset="0.0364" style="stop-color:#FFFEF4"/>
  <stop offset="0.1197" style="stop-color:#F2F1EB"/>
  <stop offset="0.2606" style="stop-color:#D8DAD9"/>
  <stop offset="0.4408" style="stop-color:#B1B8BF"/>
  <stop offset="0.5394" style="stop-color:#9BA6B1"/>
  <stop offset="1" style="stop-color:#5C6173"/>
 </linearGradient>
 <path stroke-opacity="0.25" fill="url(#HIGHLIGHT_BLU1_4_)" fill-opacity="0.25" id="HIGHLIGHT_BLU1_3_" d="M40.023,0.625&#xd;&#xa;&#x9;c-29.635,0-40,10.365-40,40c0,29.633,10.365,40,40,40c29.637,0,40-10.367,40-40C80.023,10.99,69.66,0.625,40.023,0.625z&#xd;&#xa;&#x9; M40.023,79.648c-29.158,0-39-9.848-39-39.023s9.842-39.023,39-39.023s39,9.847,39,39.023S69.182,79.648,40.023,79.648z"/>
 <path stroke-opacity="0.05" fill-opacity="0.05" d="M74.627,40.874c-0.431-0.865-1.293-1.381-2.322-1.381h-0.002&#xd;&#xa;&#x9;c-0.973,0.034-1.846,0.638-2.221,1.541c-0.043,0.104-0.099,0.235-0.151,0.36c-0.192-0.047-0.39-0.07-0.591-0.07&#xd;&#xa;&#x9;c-0.094,0-0.188,0.005-0.282,0.016c-0.103-0.675-0.244-1.34-0.435-2.019c-1.611-5.793-6.133-8.584-6.324-8.701&#xd;&#xa;&#x9;c-0.389-0.236-0.836-0.36-1.293-0.36c-0.012,0-0.022,0-0.034,0c-0.104-0.185-0.214-0.367-0.324-0.543&#xd;&#xa;&#x9;C56.357,22.903,50.31,19.448,45.99,17.75c-1.771-0.697-3.632-1.05-5.529-1.05c-1.82,0-3.602,0.326-5.293,0.969&#xd;&#xa;&#x9;c-4.539,1.725-7.66,4.116-8.638,4.923l-2.548-1.695c-0.411-0.275-0.891-0.421-1.386-0.421c-0.809,0-1.573,0.396-2.044,1.059&#xd;&#xa;&#x9;c-0.901,1.277-1.263,2.763-1.056,4.318c-2.66-0.232-2.667-0.232-2.761-0.232c-0.613,0-1.204,0.225-1.663,0.633&#xd;&#xa;&#x9;c-0.513,0.458-0.817,1.107-0.834,1.774c-0.004,0.109-0.074,2.669,2.621,4.592c-0.079,0.001-0.16,0.002-0.241,0.002&#xd;&#xa;&#x9;c-0.553,0-1.128-0.029-1.966-0.099c-0.725,0-1.414,0.315-1.892,0.866c-0.477,0.552-0.686,1.282-0.583,1.992&#xd;&#xa;&#x9;c-0.858-0.429-1.691-0.986-2.484-1.664c-0.453-0.387-1.029-0.6-1.625-0.6c-0.3,0-0.599,0.055-0.89,0.163&#xd;&#xa;&#x9;c-0.854,0.324-1.462,1.085-1.589,1.987c-0.493,3.487,0.954,7.985,3.519,10.938c1.168,1.345,2.529,2.381,4.05,3.082&#xd;&#xa;&#x9;c0.008,0.045,0.018,0.091,0.029,0.137c0.086,0.357,0.559,2.238,1.382,4.182c0.729,1.713,2.297,2.986,4.158,3.408&#xd;&#xa;&#x9;c0.002,0.396,0.097,0.787,0.28,1.141l0.553,1.063c-0.355,1.986,0.74,3.505,1.16,4.087c0.693,0.965,1.833,1.541,3.047,1.541&#xd;&#xa;&#x9;c0.22,0,0.44-0.019,0.662-0.058c0.388-0.065,0.659-0.108,0.874-0.14c0.975-0.145,1.259-0.246,2.337-0.842&#xd;&#xa;&#x9;c0.004-0.002,0.009-0.004,0.013-0.008c0.393,0.471,0.903,0.842,1.476,1.07c1.578,0.628,4.808,1.681,8.706,1.681&#xd;&#xa;&#x9;c2.75,0,5.349-0.526,7.727-1.567c0.684-0.297,1.26-0.801,1.652-1.437c0.105,0.011,0.213,0.017,0.32,0.017&#xd;&#xa;&#x9;c0.322,0,0.672-0.043,1.137-0.142c0.129-0.026,0.256-0.065,0.377-0.112c0.195,0.151,0.414,0.273,0.643,0.358&#xd;&#xa;&#x9;c2.148,0.819,4.336,1.235,6.504,1.235c3.264,0,5.771-0.918,7.303-1.688c1.586-0.796,2.438-2.604,2.071-4.397l-0.678-3.309&#xd;&#xa;&#x9;l0.847-0.847c1.217-1.216,2.085-2.669,2.51-4.204c0.1-0.363,0.192-0.725,0.277-1.076c0.215,0.053,0.441,0.08,0.684,0.08h0.002&#xd;&#xa;&#x9;c2.979-0.098,4.467-1.561,5.19-2.771C75.75,44.426,75.139,41.895,74.627,40.874z"/>
 <path stroke-opacity="0.07" fill-opacity="0.07" d="M74.18,41.097c-0.346-0.692-1.033-1.105-1.858-1.105H72.32&#xd;&#xa;&#x9;c-0.779,0.027-1.477,0.511-1.777,1.232c-0.092,0.223-0.237,0.573-0.322,0.73c-0.098-0.001-0.206-0.02-0.32-0.053&#xd;&#xa;&#x9;c-0.182-0.053-0.369-0.08-0.561-0.08c-0.241,0-0.48,0.044-0.707,0.129c-0.096-0.844-0.26-1.667-0.491-2.498&#xd;&#xa;&#x9;c-1.558-5.598-5.915-8.294-6.101-8.407c-0.313-0.188-0.67-0.288-1.035-0.288c-0.105,0-0.213,0.008-0.316,0.025&#xd;&#xa;&#x9;c-0.146-0.275-0.303-0.544-0.465-0.802c-4.219-6.7-10.168-10.098-14.417-11.768c-1.712-0.673-3.513-1.015-5.349-1.015&#xd;&#xa;&#x9;c-1.758,0-3.479,0.315-5.116,0.936c-5.124,1.947-8.366,4.716-8.78,5.08l-2.862-1.904c-0.329-0.22-0.712-0.336-1.108-0.336&#xd;&#xa;&#x9;c-0.647,0-1.258,0.316-1.635,0.847c-0.889,1.261-1.206,2.744-0.917,4.289c0.019,0.098,0.04,0.197,0.063,0.296&#xd;&#xa;&#x9;c-3.292-0.288-3.297-0.288-3.372-0.288c-0.49,0-0.962,0.179-1.33,0.506c-0.41,0.366-0.654,0.886-0.668,1.421&#xd;&#xa;&#x9;c-0.004,0.099-0.065,2.438,2.475,4.209c0.235,0.163,0.498,0.273,0.775,0.324l-0.096,0.48c-0.391,0.04-0.817,0.06-1.273,0.06&#xd;&#xa;&#x9;c-0.564,0-1.157-0.03-1.966-0.099c-0.58,0-1.131,0.252-1.514,0.692c-0.424,0.491-0.584,1.159-0.429,1.784&#xd;&#xa;&#x9;c0.064,0.261,0.14,0.515,0.226,0.762c-1.245-0.478-2.441-1.203-3.568-2.165c-0.362-0.31-0.823-0.48-1.3-0.48&#xd;&#xa;&#x9;c-0.24,0-0.479,0.043-0.712,0.13c-0.681,0.26-1.167,0.869-1.269,1.59c-0.474,3.355,0.925,7.689,3.401,10.54&#xd;&#xa;&#x9;c1.186,1.366,2.576,2.397,4.135,3.067c0.006,0.121,0.024,0.242,0.053,0.361c0.085,0.352,0.552,2.204,1.356,4.102&#xd;&#xa;&#x9;c0.732,1.721,2.352,2.923,4.237,3.197c-0.089,0.441-0.028,0.907,0.185,1.318l0.634,1.221c-0.411,1.855,0.638,3.311,1.041,3.868&#xd;&#xa;&#x9;c0.6,0.834,1.587,1.332,2.642,1.332c0.191,0,0.383-0.017,0.576-0.049c0.395-0.067,0.671-0.11,0.886-0.142&#xd;&#xa;&#x9;c0.916-0.135,1.139-0.217,2.169-0.785c0.135-0.074,0.259-0.161,0.371-0.262c0.355,0.578,0.893,1.037,1.544,1.297&#xd;&#xa;&#x9;c1.544,0.615,4.705,1.646,8.521,1.646c2.682,0,5.213-0.514,7.526-1.525c0.698-0.305,1.256-0.849,1.586-1.529&#xd;&#xa;&#x9;c0.187,0.045,0.384,0.068,0.589,0.068c0.286,0,0.604-0.041,1.029-0.131c0.202-0.044,0.395-0.117,0.57-0.218&#xd;&#xa;&#x9;c0.203,0.214,0.453,0.381,0.732,0.485c2.092,0.799,4.221,1.203,6.325,1.203c3.162,0,5.595-0.891,7.078-1.637&#xd;&#xa;&#x9;c1.384-0.695,2.126-2.277,1.806-3.851l-0.73-3.572l1.037-1.036c1.156-1.154,1.979-2.533,2.381-3.984&#xd;&#xa;&#x9;c0.15-0.551,0.285-1.09,0.402-1.612c0.297,0.162,0.646,0.25,1.024,0.25c0,0,0,0,0.001,0c2.754-0.09,4.118-1.424,4.777-2.526&#xd;&#xa;&#x9;C75.209,44.357,74.649,42.035,74.18,41.097z"/>
 <path stroke-opacity="0.1" fill-opacity="0.1" d="M73.732,41.32c-0.259-0.52-0.771-0.829-1.395-0.829l0,0&#xd;&#xa;&#x9;c-0.584,0.021-1.107,0.383-1.334,0.924c-0.431,1.04-0.455,1.04-0.771,1.04c-0.149,0-0.31-0.023-0.476-0.073&#xd;&#xa;&#x9;c-0.137-0.04-0.278-0.06-0.42-0.06c-0.326,0-0.649,0.109-0.907,0.307c-0.081,0.063-0.155,0.133-0.222,0.208&#xd;&#xa;&#x9;c-0.07-1.114-0.254-2.188-0.552-3.249c-1.507-5.415-5.698-8.005-5.878-8.113c-0.232-0.141-0.502-0.216-0.775-0.216&#xd;&#xa;&#x9;c-0.197,0-0.395,0.04-0.576,0.115c-0.194-0.395-0.405-0.771-0.629-1.125c-4.146-6.585-9.996-9.926-14.176-11.569&#xd;&#xa;&#x9;c-1.654-0.65-3.392-0.98-5.166-0.98c-1.697,0-3.358,0.304-4.938,0.903c-5.284,2.008-8.53,4.9-8.665,5.022&#xd;&#xa;&#x9;c-0.082,0.073-0.154,0.154-0.217,0.242l-3.216-2.14c-0.247-0.165-0.535-0.252-0.831-0.252c-0.486,0-0.944,0.237-1.227,0.635&#xd;&#xa;&#x9;c-0.81,1.148-1.098,2.5-0.833,3.909c0.06,0.319,0.148,0.638,0.262,0.95c-4.004-0.35-4.005-0.35-4.063-0.35&#xd;&#xa;&#x9;c-0.368,0-0.722,0.134-0.997,0.379c-0.308,0.274-0.491,0.666-0.501,1.068c-0.003,0.087-0.056,2.164,2.26,3.779&#xd;&#xa;&#x9;c0.253,0.176,0.549,0.269,0.857,0.269c0.081,0,0.16-0.006,0.239-0.019l-0.282,1.418c-0.401,0.057-0.963,0.107-1.693,0.107&#xd;&#xa;&#x9;c-0.578,0-1.188-0.031-1.966-0.099c-0.435,0-0.848,0.188-1.135,0.519c-0.318,0.368-0.438,0.869-0.321,1.338&#xd;&#xa;&#x9;c0.151,0.616,0.368,1.185,0.647,1.701c-1.692-0.455-3.302-1.328-4.8-2.605c-0.271-0.232-0.617-0.36-0.975-0.36&#xd;&#xa;&#x9;c-0.18,0-0.358,0.032-0.534,0.098c-0.511,0.195-0.875,0.652-0.952,1.193c-0.455,3.222,0.895,7.393,3.284,10.142&#xd;&#xa;&#x9;c1.217,1.402,2.652,2.434,4.271,3.066c-0.028,0.189-0.021,0.384,0.025,0.572c0.084,0.348,0.544,2.172,1.331,4.023&#xd;&#xa;&#x9;c0.75,1.76,2.504,2.909,4.492,2.953c-0.005,0.008-0.011,0.016-0.016,0.023c-0.292,0.451-0.319,1.026-0.071,1.504l0.721,1.388&#xd;&#xa;&#x9;c-0.469,1.717,0.53,3.104,0.916,3.642c0.506,0.703,1.342,1.123,2.236,1.123c0.163,0,0.327-0.014,0.491-0.042&#xd;&#xa;&#x9;c0.401-0.069,0.682-0.11,0.898-0.143c0.853-0.126,1.021-0.188,2.002-0.729c0.349-0.191,0.601-0.507,0.712-0.875&#xd;&#xa;&#x9;c0.195,0.844,0.797,1.555,1.627,1.885c1.511,0.603,4.604,1.61,8.336,1.61c2.61,0,5.075-0.499,7.325-1.483&#xd;&#xa;&#x9;c0.734-0.319,1.277-0.957,1.5-1.715c0.236,0.131,0.526,0.211,0.874,0.211c0.25,0,0.534-0.035,0.924-0.117&#xd;&#xa;&#x9;c0.311-0.067,0.578-0.228,0.78-0.443c0.167,0.335,0.455,0.6,0.81,0.732c2.033,0.775,4.102,1.17,6.146,1.17&#xd;&#xa;&#x9;c3.062,0,5.417-0.86,6.854-1.584c1.182-0.594,1.814-1.951,1.539-3.303l-0.785-3.836l1.229-1.228&#xd;&#xa;&#x9;c1.096-1.093,1.874-2.394,2.252-3.763c0.232-0.85,0.424-1.66,0.572-2.44c0.045,0.071,0.097,0.142,0.154,0.206&#xd;&#xa;&#x9;c0.283,0.32,0.691,0.504,1.121,0.504c0,0,0.041,0,0.047,0c2.529-0.082,3.769-1.286,4.363-2.283&#xd;&#xa;&#x9;C74.67,44.287,74.16,42.173,73.732,41.32z M29.394,54.341c-0.037-0.03-0.075-0.062-0.115-0.088c0.243-0.124,0.471-0.271,0.68-0.44&#xd;&#xa;&#x9;l-0.256,0.89C29.621,54.568,29.518,54.445,29.394,54.341z M44.971,50.202l-0.01-0.149c0.496-0.201,1.104-0.508,1.737-0.964&#xd;&#xa;&#x9;c-0.062,0.255-0.054,0.524,0.025,0.782c0.127,0.418,0.431,0.756,0.821,0.932c-0.709-0.215-1.068-0.441-1.069-0.441&#xd;&#xa;&#x9;c-0.259-0.189-0.563-0.289-0.886-0.289C45.375,50.07,45.16,50.117,44.971,50.202z M50.688,51.52&#xd;&#xa;&#x9;c-0.101-0.086-0.213-0.158-0.335-0.217c0.143,0.014,0.283,0.024,0.425,0.035C50.744,51.396,50.715,51.457,50.688,51.52z"/>
 <path stroke-opacity="0.15" fill-opacity="0.15" d="M28.837,56.932c0.076-0.084,0.136-0.181,0.178-0.281l0.327-0.779&#xd;&#xa;&#x9;c0.17-0.404,0.059-0.866-0.274-1.148c-0.18-0.152-0.411-0.238-0.648-0.238c-0.188,0-0.371,0.054-0.529,0.152&#xd;&#xa;&#x9;c-0.178,0.11-0.374,0.201-0.58,0.27c-1.777,0.58-5.682,1.08-5.896,1.103l-0.189-0.006c-0.342,0-0.656,0.172-0.84,0.458&#xd;&#xa;&#x9;c-0.194,0.301-0.212,0.686-0.047,1.003l0.814,1.568c-0.532,1.567,0.382,2.84,0.784,3.397c0.413,0.572,1.097,0.916,1.83,0.916&#xd;&#xa;&#x9;c0.135,0,0.27-0.013,0.406-0.035c0.408-0.07,0.693-0.113,0.91-0.145c0.786-0.116,0.906-0.16,1.835-0.674&#xd;&#xa;&#x9;c0.328-0.18,0.526-0.523,0.517-0.898C27.404,60.292,27.517,58.395,28.837,56.932z M73.285,41.543&#xd;&#xa;&#x9;c-0.17-0.341-0.512-0.552-0.928-0.552c0,0-0.001,0-0.002,0c-0.391,0.014-0.738,0.255-0.889,0.616&#xd;&#xa;&#x9;c-0.502,1.209-0.629,1.349-1.232,1.349c-0.199,0-0.404-0.031-0.613-0.093c-0.092-0.026-0.187-0.041-0.281-0.041&#xd;&#xa;&#x9;c-0.219,0-0.434,0.074-0.604,0.205c-0.253,0.193-0.399,0.496-0.396,0.814c0.021,0.949-0.047,1.922-0.2,2.975&#xd;&#xa;&#x9;c-0.044,0.293,0.046,0.588,0.243,0.81c0.188,0.213,0.461,0.335,0.746,0.335h0.031c2.303-0.074,3.42-1.148,3.95-2.039&#xd;&#xa;&#x9;C74.127,44.218,73.67,42.313,73.285,41.543z M61.523,31.904c-0.156-0.094-0.336-0.144-0.518-0.144c-0.225,0-0.442,0.076-0.617,0.213&#xd;&#xa;&#x9;c-0.059,0.046-0.11,0.098-0.157,0.154c-0.258-0.58-0.543-1.117-0.854-1.611c-4.074-6.472-9.828-9.755-13.937-11.371&#xd;&#xa;&#x9;c-1.595-0.627-3.271-0.946-4.981-0.946c-1.638,0-3.24,0.293-4.761,0.871c-5.188,1.971-8.376,4.807-8.509,4.927&#xd;&#xa;&#x9;c-0.186,0.167-0.296,0.389-0.325,0.621l-3.719-2.475c-0.165-0.11-0.356-0.168-0.554-0.168c-0.324,0-0.629,0.158-0.818,0.423&#xd;&#xa;&#x9;c-0.73,1.035-0.99,2.255-0.751,3.528c0.182,0.97,0.647,1.929,1.301,2.703l-2.188,1.744l1.305-1.149&#xd;&#xa;&#x9;c0.301-0.265,0.415-0.682,0.29-1.063c-0.125-0.38-0.464-0.648-0.863-0.684c-4.099-0.358-4.105-0.358-4.135-0.358&#xd;&#xa;&#x9;c-0.245,0-0.481,0.089-0.665,0.252c-0.205,0.183-0.327,0.444-0.334,0.713c-0.003,0.077-0.046,1.89,2.046,3.349&#xd;&#xa;&#x9;c0.168,0.117,0.366,0.179,0.571,0.179c0.243,0,0.478-0.089,0.661-0.25l0.373-0.328c-0.071,0.107-0.121,0.228-0.146,0.356&#xd;&#xa;&#x9;l-0.508,2.559c-0.434,0.081-1.134,0.17-2.116,0.17c-0.591,0-1.22-0.032-1.966-0.099c-0.29,0-0.566,0.126-0.757,0.346&#xd;&#xa;&#x9;c-0.212,0.246-0.292,0.58-0.214,0.893c0.247,1.004,0.673,1.861,1.272,2.563c-1.759-0.265-3.974-1.039-6.236-2.967&#xd;&#xa;&#x9;c-0.181-0.155-0.411-0.24-0.649-0.24c-0.12,0-0.239,0.021-0.355,0.065c-0.341,0.13-0.584,0.435-0.635,0.795&#xd;&#xa;&#x9;c-0.437,3.089,0.866,7.095,3.166,9.744c1.272,1.467,2.813,2.516,4.523,3.094c-0.136,0.224-0.181,0.494-0.121,0.748&#xd;&#xa;&#x9;c0.005,0.02,0.47,1.983,1.307,3.953c0.686,1.61,2.315,2.65,4.151,2.65c0.093,0,0.188-0.003,0.284-0.01&#xd;&#xa;&#x9;c3.846-0.231,6.457-1.084,8.185-1.648c1.234-0.402,2.131-1.475,2.342-2.797l0.422-2.68c2.948-0.137,5.195-1.18,6.682-3.102&#xd;&#xa;&#x9;c1.07-1.384,1.619-3.062,1.854-4.761c0.008,1.692-0.359,3.276-1.1,4.563c-1.236,2.151-3.334,3.326-6.067,3.396&#xd;&#xa;&#x9;c-0.437,0.013-0.813,0.302-0.935,0.724l-1.802,6.242c-1.574,1.643-1.718,4.42-1.661,5.947c0.032,0.854,0.574,1.613,1.379,1.934&#xd;&#xa;&#x9;c1.477,0.588,4.5,1.575,8.15,1.575c2.543,0,4.94-0.485,7.125-1.44c0.78-0.342,1.295-1.121,1.313-1.99&#xd;&#xa;&#x9;c0.059-3.448-0.852-5.088-1.484-5.809l-0.18-3.17l0.255,2.877c0.019,0.202,0.097,0.393,0.226,0.549&#xd;&#xa;&#x9;c0.47,0.568,1.258,1.969,1.268,4.955c0,0.402,0.32,1.041,1.18,1.041c0.215,0,0.473-0.033,0.817-0.105&#xd;&#xa;&#x9;c0.519-0.112,0.86-0.609,0.778-1.133c-0.086-0.543-0.17-1.721,0.049-2.682c0.213-0.936,0.77-1.562,1.199-1.924&#xd;&#xa;&#x9;c0.227-0.189,0.355-0.469,0.355-0.765v-2.808c0-0.252-0.115-0.5-0.34-0.72c-0.182-0.174-0.454-0.278-0.729-0.278l-0.106,0.002&#xd;&#xa;&#x9;c-2.253-0.135-3.379-0.887-3.379-0.887c-0.173-0.127-0.376-0.193-0.591-0.193c-0.241,0-0.476,0.088-0.604,0.207&#xd;&#xa;&#x9;c-0.005,0.004-0.14,0.117-0.14,0.115c-0.159,0.146-0.266,0.342-0.307,0.553l-0.098-1.73c1.1-0.385,3.202-1.438,4.545-4.098&#xd;&#xa;&#x9;c-0.245,1.242-0.766,2.289-1.559,3.13c-0.244,0.261-0.332,0.636-0.227,0.979c0.104,0.344,0.389,0.604,0.737,0.684&#xd;&#xa;&#x9;c1.397,0.313,2.739,0.47,3.983,0.47c0.512,0,1.011-0.026,1.498-0.081c-0.842,0.23-1.426,0.293-1.44,0.294&#xd;&#xa;&#x9;c-0.515,0.052-0.903,0.479-0.903,0.996v3.771c-0.529,0.42-1.268,1.193-1.537,2.389c-0.381,1.668,0.057,3.283,0.075,3.35&#xd;&#xa;&#x9;c0.084,0.307,0.312,0.559,0.609,0.67c1.976,0.754,3.983,1.137,5.968,1.137c2.961,0,5.239-0.83,6.629-1.528&#xd;&#xa;&#x9;c0.98-0.493,1.506-1.626,1.273-2.756l-0.838-4.101l1.418-1.418c1.035-1.033,1.769-2.258,2.123-3.541&#xd;&#xa;&#x9;c1.119-4.072,1.236-7.26,0.379-10.335C65.721,34.49,61.694,32.007,61.523,31.904z M29.19,38.025l0.771-2.075&#xd;&#xa;&#x9;c0.069-0.185,0.224-0.246,0.277-0.249c0.199,0.246,0.301,0.479,0.302,0.693C30.546,37.107,29.831,37.668,29.19,38.025z"/>
 <path stroke-opacity="0.15" fill-opacity="0.15" d="M18.064,31.024c0.086,0.06,0.187,0.09,0.286,0.09&#xd;&#xa;&#x9;c0.119,0,0.236-0.042,0.331-0.125l2.43-2.14c0.15-0.132,0.207-0.341,0.145-0.531c-0.063-0.19-0.232-0.324-0.432-0.342&#xd;&#xa;&#x9;c0,0-4.077-0.356-4.092-0.356c-0.122,0-0.24,0.044-0.332,0.126c-0.103,0.091-0.164,0.221-0.167,0.358&#xd;&#xa;&#x9;C16.23,28.17,16.204,29.727,18.064,31.024z M28.745,55.104c-0.093-0.08-0.208-0.119-0.324-0.119c-0.091,0-0.184,0.024-0.265,0.076&#xd;&#xa;&#x9;c-0.21,0.131-0.443,0.238-0.689,0.319c-1.861,0.608-5.87,1.11-6.069,1.127c0,0-0.163-0.006-0.171-0.006&#xd;&#xa;&#x9;c-0.169,0-0.328,0.086-0.42,0.229c-0.097,0.149-0.106,0.342-0.023,0.5l0.917,1.769c-0.597,1.41,0.232,2.565,0.643,3.138&#xd;&#xa;&#x9;c0.319,0.442,0.851,0.707,1.424,0.707c0.106,0,0.213-0.01,0.321-0.027c0.414-0.071,0.704-0.114,0.922-0.146&#xd;&#xa;&#x9;c0.724-0.105,0.783-0.128,1.667-0.615c0.163-0.091,0.263-0.264,0.258-0.449c-0.033-1.387,0.09-3.414,1.53-5.008&#xd;&#xa;&#x9;c0.038-0.041,0.068-0.09,0.09-0.142l0.327-0.778C28.966,55.477,28.911,55.243,28.745,55.104z M50.234,55.454v-2.808&#xd;&#xa;&#x9;c0-0.135-0.089-0.264-0.186-0.357c-0.094-0.09-0.25-0.141-0.383-0.141c-0.006,0-0.137,0-0.137,0&#xd;&#xa;&#x9;c-2.439-0.145-3.636-0.976-3.646-0.981c-0.088-0.063-0.189-0.097-0.293-0.097c-0.117,0-0.234,0.041-0.328,0.123&#xd;&#xa;&#x9;c-0.004,0.002-0.075,0.065-0.078,0.068c-0.115,0.105-0.176,0.258-0.161,0.413l0.337,3.798c0.01,0.102,0.048,0.196,0.111,0.274&#xd;&#xa;&#x9;c0.514,0.62,1.373,2.13,1.383,5.272c0,0.022,0.018,0.541,0.68,0.541c0.176,0,0.408-0.031,0.713-0.096&#xd;&#xa;&#x9;c0.258-0.056,0.43-0.304,0.389-0.566c-0.09-0.578-0.18-1.832,0.057-2.869c0.243-1.068,0.876-1.782,1.365-2.193&#xd;&#xa;&#x9;C50.17,55.742,50.234,55.602,50.234,55.454z M72.838,41.768c-0.086-0.17-0.258-0.277-0.447-0.277c-0.006,0-0.012,0-0.018,0&#xd;&#xa;&#x9;c-0.195,0.007-0.369,0.127-0.445,0.308c-0.487,1.179-0.725,1.657-1.693,1.657c-0.247,0-0.501-0.038-0.753-0.112&#xd;&#xa;&#x9;c-0.047-0.014-0.095-0.021-0.142-0.021c-0.108,0-0.215,0.035-0.303,0.103c-0.127,0.097-0.201,0.248-0.197,0.407&#xd;&#xa;&#x9;c0.02,0.977-0.049,1.977-0.207,3.057c-0.021,0.146,0.023,0.295,0.123,0.404c0.095,0.105,0.229,0.167,0.373,0.167h0.016&#xd;&#xa;&#x9;c2.077-0.065,3.068-1.013,3.536-1.795C73.521,44.258,73.235,42.563,72.838,41.768z M61.265,32.332&#xd;&#xa;&#x9;c-0.08-0.048-0.169-0.072-0.259-0.072c-0.109,0-0.219,0.036-0.31,0.107c-0.164,0.128-0.229,0.345-0.168,0.543&#xd;&#xa;&#x9;c0.007,0.022,0.487,1.583,0.496,3.571c-0.341-1.792-0.957-3.93-2.069-5.698c-4.002-6.357-9.658-9.584-13.697-11.172&#xd;&#xa;&#x9;c-1.535-0.604-3.15-0.911-4.799-0.911c-1.578,0-3.12,0.282-4.583,0.838c-5.09,1.934-8.222,4.714-8.353,4.832&#xd;&#xa;&#x9;c-0.181,0.163-0.219,0.432-0.089,0.638l0.645,1.02l-5.21-3.468c-0.085-0.057-0.181-0.084-0.276-0.084&#xd;&#xa;&#x9;c-0.157,0-0.312,0.074-0.409,0.211c-0.65,0.922-0.882,2.01-0.668,3.148c0.222,1.18,0.869,2.196,1.543,2.85l-3.151,2.511&#xd;&#xa;&#x9;c-0.093,0.074-0.156,0.178-0.179,0.294l-0.572,2.882c-0.391,0.095-1.229,0.25-2.542,0.25c-0.604,0-1.249-0.032-1.918-0.097&#xd;&#xa;&#x9;c-0.016-0.001-0.032-0.002-0.048-0.002c-0.145,0-0.283,0.063-0.378,0.173c-0.106,0.123-0.146,0.289-0.107,0.446&#xd;&#xa;&#x9;c0.418,1.706,1.346,2.711,2.242,3.3c-1.997-0.022-4.97-0.609-8.016-3.206c-0.092-0.079-0.207-0.12-0.324-0.12&#xd;&#xa;&#x9;c-0.06,0-0.12,0.011-0.177,0.032c-0.17,0.065-0.292,0.217-0.318,0.398c-0.417,2.956,0.836,6.8,3.048,9.347&#xd;&#xa;&#x9;c1.642,1.892,3.706,3.032,6.028,3.351c-0.476,0.083-0.864,0.091-1.012,0.091h-0.016c-0.151,0-0.294,0.068-0.389,0.186&#xd;&#xa;&#x9;c-0.098,0.121-0.134,0.279-0.098,0.431c0.019,0.079,0.471,1.967,1.279,3.87c0.607,1.426,2.056,2.347,3.691,2.347&#xd;&#xa;&#x9;c0.084,0,0.168-0.003,0.253-0.008c3.78-0.229,6.355-1.069,8.06-1.626c1.055-0.346,1.822-1.264,2.003-2.399l0.487-3.087&#xd;&#xa;&#x9;c2.998-0.053,5.256-1.035,6.717-2.921c2.162-2.794,2.051-6.93,1.678-9.594c1.455,3.492,1.447,7.267-0.096,9.952&#xd;&#xa;&#x9;c-1.328,2.311-3.572,3.57-6.488,3.646c-0.218,0.007-0.407,0.152-0.468,0.361l-1.837,6.364c-1.523,1.49-1.662,4.178-1.606,5.668&#xd;&#xa;&#x9;c0.025,0.658,0.443,1.24,1.064,1.488c1.444,0.574,4.399,1.539,7.965,1.539c2.474,0,4.803-0.471,6.926-1.398&#xd;&#xa;&#x9;c0.602-0.264,0.998-0.866,1.012-1.541c0.061-3.646-1.006-5.119-1.475-5.59l-0.377-6.666c1.269-0.352,4.772-1.801,5.617-7.174&#xd;&#xa;&#x9;c0.278,2.159,0.166,4.885-1.744,6.909c-0.123,0.132-0.166,0.317-0.112,0.489c0.053,0.172,0.192,0.303,0.368,0.342&#xd;&#xa;&#x9;c1.361,0.305,2.666,0.458,3.875,0.458c3.045,0,5.127-0.976,6.527-1.957c-2.412,2.74-6.373,3.164-6.422,3.168&#xd;&#xa;&#x9;c-0.257,0.025-0.451,0.241-0.451,0.498v4.022c-0.437,0.305-1.275,1.029-1.552,2.248c-0.351,1.535,0.054,3.043,0.071,3.105&#xd;&#xa;&#x9;c0.042,0.154,0.154,0.278,0.305,0.335c1.92,0.731,3.868,1.104,5.79,1.104c2.86,0,5.062-0.803,6.404-1.477&#xd;&#xa;&#x9;c0.78-0.393,1.194-1.301,1.009-2.209l-0.893-4.363l1.608-1.609c0.974-0.971,1.663-2.119,1.994-3.32&#xd;&#xa;&#x9;c1.095-3.979,1.212-7.084,0.38-10.068C65.293,34.819,61.428,32.431,61.265,32.332z M28.932,38.717&#xd;&#xa;&#x9;c-0.039,0.018-0.077,0.027-0.112,0.027c-0.082,0-0.165-0.048-0.221-0.129c-0.039-0.056-0.096-0.173-0.039-0.327l0.934-2.512&#xd;&#xa;&#x9;c0.142-0.379,0.486-0.577,0.752-0.577c0.152,0,0.28,0.063,0.381,0.188c0.272,0.337,0.412,0.675,0.414,1.005&#xd;&#xa;&#x9;C31.049,37.513,29.898,38.275,28.932,38.717z"/>
 <linearGradient gradientTransform="matrix(1 0 0 -1 -249.5996 -288.6504)" id="SVGID_1_" y1="-351.7012" x1="289.957" y2="-306.8511" gradientUnits="userSpaceOnUse" x2="289.957">
  <stop offset="0" style="stop-color:#C86228"/>
  <stop offset="0.497" style="stop-color:#F19C3E"/>
  <stop offset="0.5731" style="stop-color:#F3A345"/>
  <stop offset="0.8182" style="stop-color:#F8B759"/>
  <stop offset="0.9636" style="stop-color:#FABF60"/>
 </linearGradient>
 <path fill="url(#SVGID_1_)" d="M16.731,27.12l4.048,0.354l-2.43,2.14C16.69,28.457,16.731,27.12,16.731,27.12z M69.34,42.822&#xd;&#xa;&#x9;c0.02,1.003-0.051,2.041-0.211,3.139c3.951-0.126,3.916-3.66,3.262-4.971c-0.479,1.153-0.83,1.966-2.156,1.966&#xd;&#xa;&#x9;C69.922,42.956,69.625,42.907,69.34,42.822z M45.59,50.57c-0.021,0.021-0.047,0.041-0.068,0.062l0.337,3.798&#xd;&#xa;&#x9;c0.61,0.739,1.487,2.365,1.496,5.584c0,0,0.002,0.131,0.787-0.035c-0.104-0.666-0.185-1.975,0.063-3.059&#xd;&#xa;&#x9;c0.272-1.204,0.981-2.005,1.529-2.466v-2.325v-0.48c-0.077,0-0.154,0.006-0.232,0C46.855,51.492,45.59,50.57,45.59,50.57z&#xd;&#xa;&#x9; M21.227,56.001l1.032,1.987c-0.636,1.193-0.013,2.154,0.49,2.854c0.282,0.392,0.777,0.562,1.254,0.479&#xd;&#xa;&#x9;c1.728-0.301,1.328-0.098,2.433-0.707c-0.038-1.592,0.161-3.695,1.659-5.354l0.327-0.779c-0.247,0.154-0.515,0.277-0.798,0.371&#xd;&#xa;&#x9;c-1.94,0.635-6.122,1.151-6.225,1.151C21.34,56.007,21.283,56.004,21.227,56.001z M18.571,46.816&#xd;&#xa;&#x9;c-7.596,0.425-11.148-7.665-10.507-12.2c4.261,3.633,8.409,3.441,9.867,3.23c0.125-0.019,0.131-0.193,0.011-0.229&#xd;&#xa;&#x9;c-0.905-0.277-2.688-1.124-3.294-3.594c3.386,0.326,4.939-0.254,4.939-0.254l0.631-3.182l3.601-2.869l0.075,0.006&#xd;&#xa;&#x9;c-1.302-0.863-2.866-3.533-1.302-5.748l6.88,4.579c0.068,0.046,0.146-0.044,0.09-0.103l-1.705-2.71c0,0,3.134-2.813,8.196-4.736&#xd;&#xa;&#x9;c2.904-1.103,6.131-1.066,9.021,0.071c3.891,1.529,9.502,4.689,13.457,10.973c1.854,2.943,2.284,7.01,2.383,8.485&#xd;&#xa;&#x9;c0.006,0.118,0.17,0.143,0.202,0.03c0.984-3.34-0.11-6.805-0.11-6.805s3.843,2.326,5.209,7.232c0.822,2.949,0.682,5.941-0.381,9.801&#xd;&#xa;&#x9;c-0.326,1.18-0.998,2.234-1.865,3.1l-1.799,1.801l0.945,4.627c0.137,0.66-0.14,1.357-0.742,1.662&#xd;&#xa;&#x9;c-1.85,0.927-6.201,2.482-11.793,0.352c0,0-0.392-1.432-0.065-2.863c0.325-1.433,1.563-2.084,1.563-2.084v-4.298&#xd;&#xa;&#x9;c0,0,6.049-0.581,8.063-5.44c0.052-0.125-0.091-0.248-0.188-0.155c-1.396,1.315-4.504,4.569-11.796,2.94&#xd;&#xa;&#x9;c3.19-3.386,1.683-8.57,1.272-10.269c-0.029-0.118-0.217-0.136-0.215-0.017c0.244,9.047-5.818,9.815-5.818,9.815l0.412,7.293&#xd;&#xa;&#x9;c0,0,1.531,1.086,1.462,5.348c-0.009,0.472-0.282,0.902-0.712,1.09c-6.182,2.703-12.452,0.672-14.506-0.146&#xd;&#xa;&#x9;c-0.431-0.171-0.732-0.576-0.75-1.041c-0.049-1.311,0.05-4.025,1.549-5.379l1.875-6.497c7.811-0.198,10.222-8.659,6.32-15.766&#xd;&#xa;&#x9;c-0.14-0.253-0.293-0.498-0.5-0.698c-0.064-0.064-0.221,0.024-0.198,0.112c0.614,2.375,3.036,14.4-7.874,14.27l-0.553,3.509&#xd;&#xa;&#x9;c-0.146,0.922-0.775,1.711-1.664,2.002c-1.689,0.551-4.223,1.377-7.935,1.603c-1.465,0.087-2.879-0.687-3.454-2.036&#xd;&#xa;&#x9;c-0.801-1.887-1.253-3.789-1.253-3.789s1.724,0.048,3.006-0.807C18.716,46.964,18.687,46.811,18.571,46.816z M29.141,38.171&#xd;&#xa;&#x9;c1.126-0.515,2.411-1.404,2.402-2.784c-0.003-0.508-0.231-0.952-0.525-1.316c-0.579-0.714-1.669-0.33-1.991,0.529l-0.935,2.513&#xd;&#xa;&#x9;C27.84,37.787,28.486,38.471,29.141,38.171z"/>
 <path stroke-opacity="0.4" display="none" fill-opacity="0.4" id="SHADOW_2_" d="M80.073,41.253c0,29.815-10.371,40.247-40.025,40.247&#xd;&#xa;&#x9;c-29.653,0-40.025-10.432-40.025-40.247c0-29.818,10.372-40.247,40.025-40.247C69.702,1.006,80.073,11.436,80.073,41.253z"/>
 <linearGradient id="BLUE_1_6_" y1="0.0107" x1="40.0249" y2="80.4839" gradientUnits="userSpaceOnUse" x2="40.0249">
  <stop offset="0" style="stop-color:#09A7CC"/>
  <stop offset="1" style="stop-color:#356692"/>
 </linearGradient>
 <path fill="url(#BLUE_1_6_)" display="none" id="BLUE_1_3_" d="M0,40.236c0,29.815,10.372,40.247,40.025,40.247&#xd;&#xa;&#x9;c29.655,0,40.025-10.432,40.025-40.247c0-29.164-9.932-39.774-38.114-40.226h-3.82C9.934,0.462,0,11.072,0,40.236z"/>
 <linearGradient id="SVGID_2_" y1="59.1367" x1="57.627" y2="72.0156" gradientUnits="userSpaceOnUse" x2="68.756">
  <stop offset="0.0364" style="stop-color:#FF61C7"/>
  <stop offset="0.1942" style="stop-color:#F759C1"/>
  <stop offset="0.4381" style="stop-color:#E145B1"/>
  <stop offset="0.7357" style="stop-color:#BE2396"/>
  <stop offset="1" style="stop-color:#99007A"/>
 </linearGradient>
 <path fill="url(#SVGID_2_)" d="M39.019,80.483c7.373,0,13.545-0.653,18.659-2.103l19.026-19.258&#xd;&#xa;&#x9;c1.43-5.176,2.075-11.423,2.075-18.887c0-1.179-0.022-2.317-0.055-3.436L35.625,80.427C36.73,80.461,37.854,80.483,39.019,80.483z"/>
 <path fill="#FFFFFF" d="M61.322,67.725c0.124,0.126,0.202,0.248,0.237,0.366c0.032,0.12,0.01,0.262-0.072,0.423&#xd;&#xa;&#x9;c-0.082,0.164-0.224,0.359-0.423,0.59s-0.469,0.517-0.806,0.858c-0.343,0.347-0.62,0.615-0.829,0.806&#xd;&#xa;&#x9;c-0.213,0.19-0.386,0.329-0.52,0.415c-0.136,0.085-0.244,0.124-0.326,0.114c-0.081-0.008-0.163-0.043-0.248-0.105&#xd;&#xa;&#x9;c-0.106-0.085-0.302-0.266-0.585-0.543c-0.285-0.275-0.665-0.656-1.144-1.14c-0.157-0.159-0.336-0.343-0.54-0.546&#xd;&#xa;&#x9;c-0.209-0.211-0.399-0.407-0.574-0.589c-0.174-0.183-0.322-0.336-0.446-0.461l-0.186-0.188l-0.456,0.427&#xd;&#xa;&#x9;c-0.078-0.022-0.15-0.057-0.214-0.098c-0.065-0.043-0.129-0.097-0.19-0.159c-0.151-0.152-0.198-0.337-0.14-0.549&#xd;&#xa;&#x9;c0.06-0.215,0.266-0.5,0.621-0.859c0.276-0.279,0.51-0.474,0.704-0.585c0.193-0.111,0.347-0.109,0.459,0.005l3.459,3.518l1.89-1.913&#xd;&#xa;&#x9;C61.106,67.545,61.216,67.615,61.322,67.725z M60.174,63.097c0.181-0.067,0.325-0.048,0.432,0.06l3.119,3.159&#xd;&#xa;&#x9;c-0.032,0.113-0.097,0.229-0.188,0.345c-0.094,0.118-0.2,0.238-0.325,0.365c-0.185,0.188-0.357,0.313-0.514,0.375&#xd;&#xa;&#x9;c-0.157,0.063-0.311,0.031-0.456-0.096c-0.135-0.123-0.303-0.283-0.502-0.48s-0.459-0.459-0.779-0.783&#xd;&#xa;&#x9;c-0.35-0.352-0.717-0.73-1.105-1.135l-0.488,0.462c-0.075-0.018-0.146-0.05-0.216-0.099c-0.07-0.048-0.137-0.104-0.198-0.167&#xd;&#xa;&#x9;c-0.158-0.159-0.2-0.353-0.127-0.58c0.074-0.228,0.287-0.521,0.642-0.879C59.76,63.348,59.995,63.164,60.174,63.097z M59.501,62.27&#xd;&#xa;&#x9;c0.016,0.215-0.102,0.452-0.355,0.709c-0.208,0.209-0.403,0.324-0.59,0.34c-0.186,0.018-0.377-0.073-0.572-0.273&#xd;&#xa;&#x9;c-0.175-0.177-0.262-0.379-0.26-0.608c0.003-0.232,0.121-0.464,0.351-0.696c0.22-0.223,0.429-0.324,0.629-0.305&#xd;&#xa;&#x9;c0.2,0.021,0.376,0.108,0.526,0.262C59.395,61.862,59.483,62.053,59.501,62.27z M66.071,64.146c-0.187,0.188-0.369,0.346-0.55,0.471&#xd;&#xa;&#x9;c-0.179,0.126-0.359,0.205-0.54,0.239c-0.179,0.034-0.361,0.016-0.543-0.056c-0.183-0.071-0.373-0.208-0.569-0.406&#xd;&#xa;&#x9;c-0.175-0.176-0.361-0.368-0.561-0.576c-0.2-0.207-0.387-0.4-0.562-0.576c-0.174-0.176-0.373-0.385-0.599-0.624l-0.447,0.419&#xd;&#xa;&#x9;c-0.072-0.016-0.147-0.052-0.226-0.109c-0.077-0.057-0.147-0.114-0.209-0.176c-0.138-0.142-0.201-0.291-0.186-0.445&#xd;&#xa;&#x9;c0.015-0.156,0.111-0.337,0.292-0.541l-0.485-0.456c-0.192-0.185-0.268-0.377-0.222-0.575c0.043-0.201,0.141-0.377,0.294-0.53&#xd;&#xa;&#x9;c0.253-0.258,0.506-0.433,0.76-0.53l0.842,0.923l1.004-1.017c0.045,0.01,0.109,0.041,0.192,0.092c0.084,0.051,0.149,0.102,0.2,0.152&#xd;&#xa;&#x9;c0.141,0.142,0.217,0.302,0.234,0.481c0.016,0.183-0.07,0.368-0.256,0.555c-0.079,0.079-0.174,0.177-0.287,0.29&#xd;&#xa;&#x9;c-0.112,0.113-0.205,0.203-0.278,0.266l1.384,1.399c0.181,0.182,0.332,0.276,0.455,0.282c0.123,0.005,0.271-0.08,0.447-0.258&#xd;&#xa;&#x9;c0.078-0.079,0.161-0.172,0.245-0.279c0.085-0.109,0.177-0.254,0.276-0.438c0.181-0.01,0.351,0.063,0.508,0.223&#xd;&#xa;&#x9;c0.201,0.204,0.256,0.449,0.159,0.734C66.75,63.364,66.492,63.721,66.071,64.146z M67.383,56.245&#xd;&#xa;&#x9;c0.485-0.047,0.915,0.116,1.285,0.491c0.158,0.16,0.276,0.299,0.354,0.42c0.08,0.118,0.134,0.223,0.162,0.315&#xd;&#xa;&#x9;c0.027,0.091,0.032,0.169,0.012,0.233c-0.019,0.064-0.055,0.124-0.104,0.176l-1.939,1.963c0.111,0.114,0.225,0.208,0.337,0.282&#xd;&#xa;&#x9;c0.112,0.073,0.227,0.116,0.346,0.128c0.117,0.012,0.244-0.015,0.379-0.076c0.135-0.063,0.28-0.176,0.438-0.334&#xd;&#xa;&#x9;c0.175-0.177,0.352-0.4,0.532-0.674c0.18-0.273,0.313-0.547,0.404-0.82c0.117-0.063,0.239-0.074,0.361-0.034&#xd;&#xa;&#x9;c0.124,0.041,0.225,0.099,0.306,0.181c0.236,0.237,0.255,0.576,0.055,1.012c-0.201,0.434-0.57,0.926-1.11,1.473&#xd;&#xa;&#x9;c-0.568,0.574-1.125,0.884-1.673,0.925c-0.55,0.044-1.111-0.228-1.692-0.815c-0.291-0.295-0.511-0.613-0.657-0.956&#xd;&#xa;&#x9;c-0.147-0.341-0.216-0.687-0.207-1.037c0.008-0.349,0.095-0.703,0.262-1.058c0.165-0.356,0.409-0.696,0.729-1.021&#xd;&#xa;&#x9;C66.423,56.552,66.896,56.295,67.383,56.245z M67.539,58.052c-0.146-0.148-0.291-0.244-0.431-0.292&#xd;&#xa;&#x9;c-0.141-0.045-0.303,0.025-0.481,0.206c-0.19,0.193-0.289,0.394-0.295,0.598c-0.006,0.206,0.088,0.434,0.278,0.683l1.047-1.058&#xd;&#xa;&#x9;C67.634,58.153,67.595,58.109,67.539,58.052z"/>
 <linearGradient id="HIGHLIGHT_BLU1_5_" y1="0.2578" x1="40.0249" y2="79.9958" gradientUnits="userSpaceOnUse" x2="40.0249">
  <stop offset="0.0364" style="stop-color:#FFFDF2"/>
  <stop offset="0.1064" style="stop-color:#F5F8F0"/>
  <stop offset="0.2248" style="stop-color:#DBEBE9"/>
  <stop offset="0.3771" style="stop-color:#AFD5DF"/>
  <stop offset="0.5394" style="stop-color:#7ABAD2"/>
  <stop offset="1" style="stop-color:#00879A"/>
 </linearGradient>
 <path stroke-opacity="0.25" fill="url(#HIGHLIGHT_BLU1_5_)" display="none" fill-opacity="0.25" id="HIGHLIGHT_BLU1_2_" d="M40.025,0C10.372,0,0,10.43,0,40.247&#xd;&#xa;&#x9;c0,29.815,10.372,40.247,40.025,40.247c29.655,0,40.025-10.432,40.025-40.247C80.05,10.43,69.68,0,40.025,0z M40.025,79.512&#xd;&#xa;&#x9;C10.849,79.512,1,69.603,1,40.247C1,10.891,10.849,0.983,40.025,0.983s39.024,9.908,39.024,39.264&#xd;&#xa;&#x9;C79.049,69.603,69.201,79.512,40.025,79.512z"/>
 <g display="none">
  <g display="inline">
   <path fill="#088296" d="M21.027,42.146c0.04,0.033,0.083,0.069,0.127,0.104C21.109,42.216,21.068,42.181,21.027,42.146z&#xd;&#xa;&#x9;&#x9;&#x9; M22.014,42.894c0.01,0.007,0.021,0.014,0.029,0.021C22.034,42.907,22.023,42.9,22.014,42.894z M21.427,42.465&#xd;&#xa;&#x9;&#x9;&#x9;c0.042,0.032,0.083,0.066,0.127,0.099C21.509,42.53,21.47,42.498,21.427,42.465z M59.731,31.187&#xd;&#xa;&#x9;&#x9;&#x9;c-0.183-0.005-0.356-0.011-0.517-0.021C59.375,31.176,59.549,31.182,59.731,31.187z M23.313,43.678&#xd;&#xa;&#x9;&#x9;&#x9;c-0.068-0.035-0.136-0.071-0.202-0.108C23.177,43.606,23.243,43.643,23.313,43.678z M24.667,44.308&#xd;&#xa;&#x9;&#x9;&#x9;c0.028,0.012,0.059,0.021,0.086,0.032C24.727,44.328,24.696,44.319,24.667,44.308z M23.784,43.917&#xd;&#xa;&#x9;&#x9;&#x9;c0.061,0.03,0.119,0.061,0.182,0.088C23.903,43.977,23.845,43.947,23.784,43.917z M25.66,44.647&#xd;&#xa;&#x9;&#x9;&#x9;c-0.081-0.024-0.164-0.048-0.243-0.073C25.496,44.6,25.579,44.623,25.66,44.647z M30.19,34.823c0.002,0,0.005,0.002,0.008,0.002&#xd;&#xa;&#x9;&#x9;&#x9;c-0.002,0-0.002-0.004-0.004-0.004S30.19,34.823,30.19,34.823z M20.801,41.955c-0.03-0.027-0.062-0.053-0.091-0.079&#xd;&#xa;&#x9;&#x9;&#x9;C20.739,41.902,20.771,41.928,20.801,41.955z M29.572,45.138c-0.112,0.005-0.226,0.011-0.336,0.013&#xd;&#xa;&#x9;&#x9;&#x9;C29.346,45.148,29.46,45.143,29.572,45.138z M30.621,45.05c-0.125,0.016-0.248,0.028-0.371,0.04&#xd;&#xa;&#x9;&#x9;&#x9;C30.373,45.078,30.496,45.065,30.621,45.05z M20.391,41.62c0.024-0.001,0.048,0.008,0.07,0.028&#xd;&#xa;&#x9;&#x9;&#x9;C20.439,41.628,20.415,41.619,20.391,41.62C20.392,41.619,20.392,41.62,20.391,41.62z M20.298,41.686&#xd;&#xa;&#x9;&#x9;&#x9;c0.004-0.005,0.008-0.013,0.012-0.019C20.305,41.673,20.302,41.679,20.298,41.686z M31.688,44.865&#xd;&#xa;&#x9;&#x9;&#x9;c-0.115,0.024-0.229,0.042-0.342,0.064C31.459,44.907,31.572,44.89,31.688,44.865z M19.492,35.344&#xd;&#xa;&#x9;&#x9;&#x9;c-0.005,0-0.009-0.002-0.014-0.003c0.003,0,0.003,0.005,0.007,0.005C19.487,35.347,19.489,35.345,19.492,35.344z M48.336,24.237&#xd;&#xa;&#x9;&#x9;&#x9;c-0.026,0.018-0.05,0.005-0.069-0.009c0.011,0.008,0.018,0.021,0.032,0.021C48.311,24.249,48.323,24.245,48.336,24.237z&#xd;&#xa;&#x9;&#x9;&#x9; M26.506,44.869c-0.093-0.021-0.185-0.042-0.275-0.065C26.321,44.827,26.413,44.849,26.506,44.869z M48.251,24.218&#xd;&#xa;&#x9;&#x9;&#x9;c-0.015-0.022-0.022-0.051,0-0.077C48.228,24.168,48.234,24.196,48.251,24.218z M58.006,31.026&#xd;&#xa;&#x9;&#x9;&#x9;c0.128,0.023,0.275,0.047,0.443,0.07C58.282,31.073,58.133,31.049,58.006,31.026z M57.426,30.887&#xd;&#xa;&#x9;&#x9;&#x9;c-0.032-0.011-0.052-0.017-0.052-0.017S57.399,30.878,57.426,30.887z M57.465,30.899c0.035,0.01,0.078,0.021,0.133,0.036&#xd;&#xa;&#x9;&#x9;&#x9;C57.545,30.921,57.499,30.909,57.465,30.899z M57.918,31.008c-0.091-0.019-0.172-0.035-0.239-0.053&#xd;&#xa;&#x9;&#x9;&#x9;C57.746,30.973,57.828,30.99,57.918,31.008z M59.015,31.152c-0.17-0.013-0.323-0.028-0.465-0.046&#xd;&#xa;&#x9;&#x9;&#x9;C58.691,31.124,58.846,31.14,59.015,31.152z M28.287,45.129c0.053,0.004,0.107,0.003,0.16,0.006&#xd;&#xa;&#x9;&#x9;&#x9;C28.395,45.132,28.34,45.133,28.287,45.129z M27.375,45.03c-0.075-0.011-0.148-0.025-0.224-0.037&#xd;&#xa;&#x9;&#x9;&#x9;C27.227,45.005,27.3,45.02,27.375,45.03z M30.147,34.837c-0.007,0.003-0.016,0.003-0.021,0.009&#xd;&#xa;&#x9;&#x9;&#x9;C30.132,34.841,30.141,34.84,30.147,34.837z M39.894,16.68c0.136,0.02,0.272,0.031,0.408,0.055&#xd;&#xa;&#x9;&#x9;&#x9;C40.167,16.711,40.03,16.7,39.894,16.68z M41.005,16.895c0.104,0.026,0.209,0.043,0.313,0.073&#xd;&#xa;&#x9;&#x9;&#x9;C41.214,16.938,41.108,16.92,41.005,16.895z M19.532,35.33c0.007-0.004,0.014-0.005,0.021-0.011&#xd;&#xa;&#x9;&#x9;&#x9;C19.546,35.325,19.539,35.326,19.532,35.33z M39.272,16.599c-0.15-0.013-0.301-0.013-0.452-0.02&#xd;&#xa;&#x9;&#x9;&#x9;C38.972,16.585,39.122,16.586,39.272,16.599z M22.53,43.229c0.054,0.033,0.11,0.067,0.166,0.1&#xd;&#xa;&#x9;&#x9;&#x9;C22.64,43.295,22.583,43.262,22.53,43.229z M49.521,33.404c-0.002,0.016-0.002,0.031-0.005,0.047&#xd;&#xa;&#x9;&#x9;&#x9;C49.519,33.436,49.519,33.42,49.521,33.404z M49.426,33.687c-0.009,0.013-0.018,0.023-0.026,0.036&#xd;&#xa;&#x9;&#x9;&#x9;C49.408,33.71,49.418,33.699,49.426,33.687z M60.38,43.765c-0.071-0.008-0.147-0.018-0.226-0.028&#xd;&#xa;&#x9;&#x9;&#x9;C60.234,43.748,60.308,43.757,60.38,43.765z M48.923,33.964c0.007,0,0.015,0.004,0.021,0.004c0.011,0,0.019-0.007,0.029-0.007&#xd;&#xa;&#x9;&#x9;&#x9;C48.957,33.962,48.939,33.965,48.923,33.964z M60.001,43.713c-0.079-0.016-0.161-0.032-0.244-0.05&#xd;&#xa;&#x9;&#x9;&#x9;C59.841,43.681,59.922,43.697,60.001,43.713z M59.138,43.492c-0.097-0.034-0.194-0.077-0.292-0.119&#xd;&#xa;&#x9;&#x9;&#x9;C58.944,43.415,59.04,43.458,59.138,43.492z M34.13,46.134l-0.932,0.287c-1.367,0.422-2.752,0.637-4.12,0.638v0.216v2.751&#xd;&#xa;&#x9;&#x9;&#x9;c0.514,0.455,1.143,1.212,1.394,2.32c0.207,0.919,0.172,1.805,0.092,2.445c0.625,0.121,1.267,0.196,1.911,0.218&#xd;&#xa;&#x9;&#x9;&#x9;c0.045-2.727,0.754-4.211,1.37-4.989L34.13,46.134z M58.823,42.657c-0.167,0-0.337-0.005-0.528-0.015&#xd;&#xa;&#x9;&#x9;&#x9;c-0.141,0-0.262,0.09-0.303,0.227c-0.042,0.144,0.017,0.3,0.139,0.38c0.917,0.615,2.062,0.745,2.586,0.771&#xd;&#xa;&#x9;&#x9;&#x9;c-0.146,0.557-0.517,1.877-1.063,3.177c-0.448,1.058-1.527,1.74-2.748,1.74c-0.064,0-0.128-0.002-0.192-0.007&#xd;&#xa;&#x9;&#x9;&#x9;c-3.453-0.21-6.291-1.005-7.675-1.461c-0.72-0.236-1.245-0.873-1.37-1.662l-0.505-3.225l-0.03-0.188l-0.188-0.004&#xd;&#xa;&#x9;&#x9;&#x9;c-2.547-0.048-4.44-0.87-5.629-2.443c-2.46-3.256-1.297-8.779-0.884-10.393c0.023-0.089,0.004-0.185-0.056-0.263&#xd;&#xa;&#x9;&#x9;&#x9;c-0.068-0.09-0.179-0.145-0.289-0.145c-0.078,0-0.152,0.028-0.211,0.083c-0.215,0.211-0.384,0.45-0.502,0.711&#xd;&#xa;&#x9;&#x9;&#x9;c-1.819,3.982-1.858,8.218-0.1,11.055c1.324,2.136,3.502,3.325,6.305,3.443l1.273,6.113l0.016,0.071l0.054,0.049&#xd;&#xa;&#x9;&#x9;&#x9;c1.324,1.204,1.379,3.739,1.342,4.772c-0.012,0.33-0.225,0.627-0.543,0.755c-1.275,0.51-3.888,1.366-7.034,1.366&#xd;&#xa;&#x9;&#x9;&#x9;c-2.167,0-4.205-0.412-6.059-1.228c-0.307-0.135-0.509-0.448-0.515-0.799c-0.061-3.718,1.23-4.722,1.241-4.729l0.088-0.064&#xd;&#xa;&#x9;&#x9;&#x9;l0.007-0.106l0.378-5.746l0.008-0.126l-0.102-0.074c-0.045-0.031-4.396-3.237-5.232-9.828c-0.02-0.158-0.148-0.272-0.307-0.272&#xd;&#xa;&#x9;&#x9;&#x9;c-0.156,0-0.292,0.108-0.329,0.262c-0.342,1.426-1.144,6.241,2.463,9.62c-1.088,0.3-2.183,0.452-3.26,0.452&#xd;&#xa;&#x9;&#x9;&#x9;c-4.345,0-7.36-2.409-8.455-3.447c-0.061-0.059-0.141-0.09-0.222-0.09c-0.112,0-0.217,0.058-0.28,0.155&#xd;&#xa;&#x9;&#x9;&#x9;c-0.066,0.098-0.077,0.222-0.031,0.331c1.669,4.048,6.324,4.96,7.356,5.115v3.753v0.139l0.121,0.063&#xd;&#xa;&#x9;&#x9;&#x9;c0.01,0.006,1.042,0.564,1.314,1.765c0.233,1.03,0.043,2.08-0.031,2.414c-1.642,0.615-3.304,0.928-4.942,0.928&#xd;&#xa;&#x9;&#x9;&#x9;c-2.617,0-4.6-0.804-5.55-1.285c-0.438-0.221-0.668-0.746-0.559-1.278l0.865-4.257l0.024-0.119l-0.086-0.086l-1.646-1.653&#xd;&#xa;&#x9;&#x9;&#x9;c-0.805-0.811-1.374-1.762-1.646-2.751c-0.981-3.578-1.084-6.237-0.35-8.891c0.932-3.363,3.175-5.398,4.171-6.166&#xd;&#xa;&#x9;&#x9;&#x9;c-0.247,1.086-0.626,3.446,0.057,5.776c0.04,0.138,0.162,0.229,0.304,0.229c0.174,0,0.313-0.131,0.324-0.303&#xd;&#xa;&#x9;&#x9;&#x9;c0.094-1.436,0.492-5.062,2.142-7.698c3.563-5.689,8.6-8.578,12.198-10.001c1.324-0.523,2.717-0.79,4.138-0.79&#xd;&#xa;&#x9;&#x9;&#x9;c1.36,0,2.688,0.245,3.949,0.726c3.936,1.503,6.967,3.806,7.724,4.408l-1.877,2.076c-0.077,0.086-0.096,0.206-0.049,0.311&#xd;&#xa;&#x9;&#x9;&#x9;c0.047,0.105,0.151,0.174,0.265,0.174l0.104-0.012l0.057-0.039l6.104-4.083c0.398,0.656,0.526,1.392,0.377,2.188&#xd;&#xa;&#x9;&#x9;&#x9;c-0.22,1.183-0.999,2.174-1.628,2.594l-0.738,0.491l0.881-0.078l6.056-0.532c-0.062,0.635-0.443,2.378-2.763,3.23l-0.187,0.068&#xd;&#xa;&#x9;&#x9;&#x9;l0.044,0.194l0.548,2.423l0.027,0.119l0.114,0.043c0.038,0.014,0.926,0.338,2.797,0.338c0.477,0,0.978-0.021,1.496-0.063&#xd;&#xa;&#x9;&#x9;&#x9;c-0.802,2.612-3.129,2.927-3.231,2.94l-1.144,0.141l1.112,0.302c0.028,0.008,0.723,0.193,1.848,0.193&#xd;&#xa;&#x9;&#x9;&#x9;c1.87,0,4.67-0.501,7.558-2.841c0.153,2.092-0.59,5.228-2.669,7.636C63.907,41.064,61.888,42.657,58.823,42.657z M49.699,33.045&#xd;&#xa;&#x9;&#x9;&#x9;l-0.696-1.881c-0.18-0.485-0.641-0.823-1.121-0.823c-0.294,0-0.558,0.128-0.747,0.362c-0.291,0.361-0.439,0.741-0.442,1.128&#xd;&#xa;&#x9;&#x9;&#x9;c-0.005,0.918,0.658,1.71,1.92,2.291c0.108,0.049,0.22,0.075,0.332,0.075c0.256,0,0.501-0.132,0.655-0.354&#xd;&#xa;&#x9;&#x9;&#x9;C49.761,33.609,49.798,33.312,49.699,33.045z M58.256,43.06c0.14,0.096,0.285,0.176,0.433,0.247&#xd;&#xa;&#x9;&#x9;&#x9;C58.541,43.235,58.396,43.155,58.256,43.06z M58.291,42.872c0.004-0.001,0.007-0.004,0.011-0.004c-0.002,0-0.004,0-0.007,0&#xd;&#xa;&#x9;&#x9;&#x9;C58.293,42.868,58.293,42.872,58.291,42.872z M58.207,42.944c0-0.001,0-0.001,0-0.002C58.207,42.943,58.207,42.943,58.207,42.944z&#xd;&#xa;&#x9;&#x9;&#x9; M47.547,30.655c0.023-0.012,0.046-0.022,0.069-0.032C47.593,30.633,47.57,30.644,47.547,30.655z M47.893,30.568&#xd;&#xa;&#x9;&#x9;&#x9;c-0.004,0-0.006-0.002-0.011-0.002c-0.009,0-0.018,0.005-0.026,0.006C47.867,30.571,47.879,30.567,47.893,30.568z M48.145,30.611&#xd;&#xa;&#x9;&#x9;&#x9;c0.021,0.007,0.04,0.018,0.06,0.025C48.185,30.628,48.165,30.618,48.145,30.611z M48.384,30.731&#xd;&#xa;&#x9;&#x9;&#x9;c0.023,0.016,0.047,0.034,0.07,0.052C48.431,30.765,48.407,30.748,48.384,30.731z M59.318,43.548&#xd;&#xa;&#x9;&#x9;&#x9;c0.089,0.027,0.177,0.054,0.263,0.075C59.495,43.602,59.407,43.575,59.318,43.548z M38.908,57.694&#xd;&#xa;&#x9;&#x9;&#x9;c-0.097-0.01-0.193-0.021-0.289-0.032C38.715,57.674,38.811,57.685,38.908,57.694z M39.838,57.77&#xd;&#xa;&#x9;&#x9;&#x9;c-0.091-0.005-0.181-0.013-0.273-0.019C39.658,57.757,39.748,57.765,39.838,57.77z M57.063,49.151&#xd;&#xa;&#x9;&#x9;&#x9;c0.074-0.003,0.146-0.006,0.22-0.014C57.209,49.146,57.136,49.148,57.063,49.151z M35.493,56.922&#xd;&#xa;&#x9;&#x9;&#x9;c0.095,0.033,0.189,0.064,0.286,0.096C35.682,56.986,35.587,56.955,35.493,56.922z M57.543,49.096&#xd;&#xa;&#x9;&#x9;&#x9;c0.071-0.014,0.142-0.026,0.211-0.044C57.685,49.069,57.614,49.082,57.543,49.096z M36.481,57.233&#xd;&#xa;&#x9;&#x9;&#x9;c0.092,0.025,0.184,0.052,0.276,0.074C36.666,57.285,36.574,57.259,36.481,57.233z M37.764,57.531&#xd;&#xa;&#x9;&#x9;&#x9;c-0.025-0.005-0.049-0.008-0.074-0.014C37.715,57.523,37.738,57.526,37.764,57.531z M60.495,43.778&#xd;&#xa;&#x9;&#x9;&#x9;c0.074,0.007,0.143,0.012,0.203,0.016C60.637,43.79,60.57,43.785,60.495,43.778z M40.034,29.393&#xd;&#xa;&#x9;&#x9;&#x9;c0.016-0.014,0.035-0.019,0.056-0.018c-0.001,0-0.001-0.001-0.001-0.001C40.068,29.374,40.048,29.38,40.034,29.393z&#xd;&#xa;&#x9;&#x9;&#x9; M40.185,29.421c-0.004-0.005-0.009-0.009-0.014-0.013C40.177,29.413,40.18,29.417,40.185,29.421z M54.971,53.489l-0.064-0.121&#xd;&#xa;&#x9;&#x9;&#x9;l0.078-0.113l1.654-2.435c-0.007-0.001-0.014-0.001-0.021-0.001c-3.456-0.21-6.308-0.955-8.091-1.542&#xd;&#xa;&#x9;&#x9;&#x9;c-0.109-0.037-0.216-0.076-0.319-0.123l0.163,0.65c1.367,1.563,1.559,3.981,1.54,5.379c1.156,0.622,2.399,1.052,3.701,1.279&#xd;&#xa;&#x9;&#x9;&#x9;c0.06,0.009,0.119,0.014,0.179,0.014c0.305,0,0.585-0.135,0.747-0.364C55.016,55.443,55.478,54.445,54.971,53.489z M58.623,48.691&#xd;&#xa;&#x9;&#x9;&#x9;c-0.059,0.034-0.12,0.063-0.18,0.094C58.503,48.754,58.564,48.726,58.623,48.691z M58.849,48.534&#xd;&#xa;&#x9;&#x9;&#x9;c0.054-0.036,0.108-0.072,0.158-0.113C58.957,48.462,58.902,48.498,58.849,48.534z M58.203,48.903&#xd;&#xa;&#x9;&#x9;&#x9;c-0.065,0.025-0.132,0.047-0.198,0.07C58.071,48.95,58.139,48.929,58.203,48.903z M48.651,30.987&#xd;&#xa;&#x9;&#x9;&#x9;c-0.017-0.022-0.036-0.043-0.055-0.064C48.614,30.944,48.635,30.964,48.651,30.987z M26.399,56.043&#xd;&#xa;&#x9;&#x9;&#x9;c0.354-0.065,0.717-0.151,1.086-0.251C27.117,55.892,26.753,55.978,26.399,56.043z M26.312,56.062&#xd;&#xa;&#x9;&#x9;&#x9;c-0.382,0.068-0.752,0.114-1.116,0.151C25.559,56.176,25.929,56.13,26.312,56.062z M40.699,57.794&#xd;&#xa;&#x9;&#x9;&#x9;c0.374-0.001,0.74-0.017,1.1-0.038C41.439,57.777,41.073,57.793,40.699,57.794z M42.848,57.659&#xd;&#xa;&#x9;&#x9;&#x9;c-0.246,0.028-0.499,0.053-0.756,0.073C42.349,57.712,42.602,57.688,42.848,57.659z M47.35,56.585&#xd;&#xa;&#x9;&#x9;&#x9;c0.167-0.061,0.324-0.121,0.455-0.174C47.673,56.465,47.518,56.523,47.35,56.585z M43.868,57.509&#xd;&#xa;&#x9;&#x9;&#x9;c-0.224,0.039-0.453,0.074-0.688,0.106C43.415,57.583,43.645,57.549,43.868,57.509z M24.923,56.235&#xd;&#xa;&#x9;&#x9;&#x9;c-0.316,0.024-0.625,0.039-0.925,0.041C24.297,56.274,24.607,56.26,24.923,56.235z M20.569,55.845&#xd;&#xa;&#x9;&#x9;&#x9;c0.191,0.053,0.391,0.1,0.597,0.144C20.96,55.944,20.761,55.897,20.569,55.845z M29.033,55.296&#xd;&#xa;&#x9;&#x9;&#x9;c-0.421,0.161-0.832,0.293-1.237,0.409C28.201,55.589,28.611,55.457,29.033,55.296z M19.298,55.434&#xd;&#xa;&#x9;&#x9;&#x9;c0.126,0.048,0.259,0.095,0.396,0.145C19.557,55.528,19.424,55.481,19.298,55.434z M18.783,55.22&#xd;&#xa;&#x9;&#x9;&#x9;c0.107,0.05,0.221,0.097,0.34,0.146C19.004,55.316,18.892,55.27,18.783,55.22z M19.864,55.637&#xd;&#xa;&#x9;&#x9;&#x9;c0.198,0.064,0.405,0.128,0.622,0.188C20.268,55.765,20.062,55.701,19.864,55.637z M22.18,56.163&#xd;&#xa;&#x9;&#x9;&#x9;c0.198,0.028,0.403,0.049,0.611,0.066C22.583,56.212,22.377,56.191,22.18,56.163z M21.395,56.033&#xd;&#xa;&#x9;&#x9;&#x9;c0.171,0.035,0.345,0.064,0.525,0.092C21.74,56.098,21.566,56.068,21.395,56.033z M44.146,57.46&#xd;&#xa;&#x9;&#x9;&#x9;c0.292-0.054,0.575-0.112,0.845-0.175C44.721,57.348,44.438,57.406,44.146,57.46z M59.213,42.857&#xd;&#xa;&#x9;&#x9;&#x9;c0.192-0.009,0.384-0.019,0.569-0.04C59.596,42.839,59.405,42.849,59.213,42.857z M60.395,42.723&#xd;&#xa;&#x9;&#x9;&#x9;c0.18-0.034,0.359-0.067,0.531-0.112C60.753,42.655,60.574,42.688,60.395,42.723z M23,56.247c0.281,0.021,0.569,0.032,0.866,0.033&#xd;&#xa;&#x9;&#x9;&#x9;C23.568,56.279,23.28,56.268,23,56.247z M64.645,40.49c-0.119,0.116-0.247,0.224-0.373,0.333&#xd;&#xa;&#x9;&#x9;&#x9;C64.397,40.714,64.525,40.605,64.645,40.49z M60.573,31.182c-0.214,0.006-0.424,0.011-0.614,0.01c0.046,0,0.085,0.002,0.133,0.002&#xd;&#xa;&#x9;&#x9;&#x9;C60.241,31.194,60.41,31.187,60.573,31.182z M63.432,41.471c0.138-0.095,0.279-0.188,0.412-0.288&#xd;&#xa;&#x9;&#x9;&#x9;C63.711,41.284,63.57,41.376,63.432,41.471z M60.761,43.797c0.082,0.004,0.151,0.006,0.192,0.006c0.033,0,0.051-0.001,0.051-0.001&#xd;&#xa;&#x9;&#x9;&#x9;S60.911,43.803,60.761,43.797z M62.505,42.013c0.152-0.077,0.306-0.151,0.45-0.236C62.811,41.862,62.657,41.936,62.505,42.013z&#xd;&#xa;&#x9;&#x9;&#x9; M54.431,56.513c0.026-0.02,0.055-0.033,0.08-0.053C54.485,56.479,54.457,56.493,54.431,56.513z M59.633,47.715&#xd;&#xa;&#x9;&#x9;&#x9;c-0.027,0.044-0.061,0.081-0.091,0.122C59.572,47.796,59.605,47.759,59.633,47.715z M53.852,56.696&#xd;&#xa;&#x9;&#x9;&#x9;c0.039-0.001,0.076-0.006,0.114-0.012C53.929,56.69,53.891,56.695,53.852,56.696z M46.543,56.859&#xd;&#xa;&#x9;&#x9;&#x9;c-0.153,0.049-0.318,0.098-0.487,0.146C46.225,56.957,46.389,56.908,46.543,56.859z M46.772,56.784&#xd;&#xa;&#x9;&#x9;&#x9;c0.143-0.047,0.277-0.093,0.402-0.138C47.049,56.691,46.916,56.736,46.772,56.784z M59.216,48.223&#xd;&#xa;&#x9;&#x9;&#x9;c0.043-0.043,0.09-0.082,0.131-0.128C59.306,48.141,59.259,48.18,59.216,48.223z M54.148,56.644&#xd;&#xa;&#x9;&#x9;&#x9;c0.036-0.012,0.072-0.021,0.106-0.036C54.22,56.622,54.186,56.632,54.148,56.644z M45.024,57.278&#xd;&#xa;&#x9;&#x9;&#x9;c0.283-0.066,0.549-0.138,0.803-0.207C45.573,57.141,45.308,57.212,45.024,57.278z M61.983,42.259&#xd;&#xa;&#x9;&#x9;&#x9;c-0.159,0.066-0.325,0.121-0.491,0.177C61.658,42.38,61.823,42.325,61.983,42.259z M18.648,55.161&#xd;&#xa;&#x9;&#x9;&#x9;c-0.145-0.065-0.28-0.128-0.4-0.19C18.369,55.033,18.505,55.096,18.648,55.161z M61.843,34.567&#xd;&#xa;&#x9;&#x9;&#x9;c-0.097,0.016-0.192,0.029-0.286,0.041C61.651,34.597,61.745,34.583,61.843,34.567z M62.422,34.456&#xd;&#xa;&#x9;&#x9;&#x9;c0.088-0.019,0.174-0.034,0.264-0.056C62.595,34.421,62.51,34.437,62.422,34.456z M63.573,34.148&#xd;&#xa;&#x9;&#x9;&#x9;c0.046-0.016,0.093-0.036,0.138-0.051C63.665,34.112,63.619,34.132,63.573,34.148z M64.833,33.64&#xd;&#xa;&#x9;&#x9;&#x9;c-0.108,0.05-0.218,0.104-0.324,0.149C64.616,33.743,64.725,33.69,64.833,33.64z M66.551,32.669c0.11-0.073,0.22-0.142,0.33-0.22&#xd;&#xa;&#x9;&#x9;&#x9;C66.771,32.527,66.661,32.596,66.551,32.669z M65.856,33.106c-0.12,0.07-0.24,0.138-0.36,0.202&#xd;&#xa;&#x9;&#x9;&#x9;C65.617,33.244,65.736,33.176,65.856,33.106z M58.815,34.607c-0.076-0.012-0.143-0.023-0.199-0.035&#xd;&#xa;&#x9;&#x9;&#x9;C58.672,34.583,58.739,34.595,58.815,34.607z M59.16,34.652c-0.112-0.012-0.217-0.025-0.307-0.04&#xd;&#xa;&#x9;&#x9;&#x9;C58.943,34.627,59.048,34.641,59.16,34.652z M59.257,34.662c0.09,0.009,0.187,0.017,0.289,0.024&#xd;&#xa;&#x9;&#x9;&#x9;C59.443,34.679,59.347,34.671,59.257,34.662z M59.674,34.693c0.118,0.006,0.242,0.01,0.374,0.011&#xd;&#xa;&#x9;&#x9;&#x9;C59.917,34.703,59.791,34.7,59.674,34.693z M58.559,34.562c-0.043-0.009-0.077-0.016-0.104-0.022&#xd;&#xa;&#x9;&#x9;&#x9;C58.48,34.545,58.519,34.553,58.559,34.562z M58.425,34.532c-0.025-0.006-0.041-0.01-0.041-0.01S58.404,34.528,58.425,34.532z&#xd;&#xa;&#x9;&#x9;&#x9; M67.644,35.167c-0.036,0.144-0.084,0.289-0.127,0.433C67.56,35.456,67.607,35.311,67.644,35.167z M61.053,34.665&#xd;&#xa;&#x9;&#x9;&#x9;c-0.083,0.007-0.167,0.015-0.246,0.02C60.886,34.68,60.969,34.672,61.053,34.665z M61.891,31.103&#xd;&#xa;&#x9;&#x9;&#x9;c-0.368,0.037-0.708,0.059-1.03,0.073C61.183,31.161,61.522,31.139,61.891,31.103z M37.615,16.586&#xd;&#xa;&#x9;&#x9;&#x9;c0.207-0.012,0.416-0.028,0.624-0.029C38.031,16.558,37.822,16.574,37.615,16.586z M67.191,36.553&#xd;&#xa;&#x9;&#x9;&#x9;c0.057-0.146,0.118-0.292,0.169-0.438C67.31,36.262,67.248,36.407,67.191,36.553z M60.285,34.704c-0.048,0-0.1,0.003-0.146,0.003&#xd;&#xa;&#x9;&#x9;&#x9;c0.012,0,0.021,0,0.033,0C60.208,34.708,60.249,34.704,60.285,34.704z M36.521,16.704c0.219-0.035,0.438-0.073,0.656-0.093&#xd;&#xa;&#x9;&#x9;&#x9;C36.958,16.631,36.74,16.669,36.521,16.704z M67.841,34.231c-0.022,0.135-0.057,0.274-0.085,0.412&#xd;&#xa;&#x9;&#x9;&#x9;C67.784,34.505,67.818,34.366,67.841,34.231z M13.001,41.6c-0.109-0.817-0.162-1.592-0.162-2.353&#xd;&#xa;&#x9;&#x9;&#x9;c-0.195,0.038-0.393,0.058-0.588,0.058c-1.078,0-2.059-0.55-2.63-1.438c-0.081,0.575,0.033,1.356,0.451,2.061&#xd;&#xa;&#x9;&#x9;&#x9;C10.489,40.628,11.331,41.469,13.001,41.6z M36.124,16.762c-0.241,0.047-0.48,0.11-0.718,0.171&#xd;&#xa;&#x9;&#x9;&#x9;C35.644,16.872,35.883,16.809,36.124,16.762z M35.084,17.012c-0.343,0.1-0.682,0.215-1.018,0.348&#xd;&#xa;&#x9;&#x9;&#x9;C34.402,17.228,34.741,17.113,35.084,17.012z M66.28,38.407c0.085-0.141,0.174-0.278,0.252-0.422&#xd;&#xa;&#x9;&#x9;&#x9;C66.454,38.128,66.365,38.266,66.28,38.407z M65.697,39.275c0.099-0.132,0.2-0.263,0.292-0.4&#xd;&#xa;&#x9;&#x9;&#x9;C65.897,39.012,65.796,39.143,65.697,39.275z M66.779,37.495c0.071-0.146,0.146-0.289,0.211-0.436&#xd;&#xa;&#x9;&#x9;&#x9;C66.926,37.207,66.85,37.35,66.779,37.495z M65.361,39.717c-0.106,0.126-0.223,0.247-0.334,0.37&#xd;&#xa;&#x9;&#x9;&#x9;C65.14,39.964,65.255,39.843,65.361,39.717z M67.908,33.688c0.013-0.122,0.034-0.247,0.043-0.366&#xd;&#xa;&#x9;&#x9;&#x9;C67.942,33.442,67.921,33.567,67.908,33.688z M67.967,32.746c0.001-0.096,0.01-0.197,0.007-0.29&#xd;&#xa;&#x9;&#x9;&#x9;C67.977,32.549,67.968,32.65,67.967,32.746z"/>
  </g>
  <g display="inline">
   <linearGradient id="SVGID_3_" y1="57.7939" x1="38.7866" y2="16.5576" gradientUnits="userSpaceOnUse" x2="38.7866">
    <stop offset="0" style="stop-color:#B7B7B7"/>
    <stop offset="1" style="stop-color:#FFFFFF"/>
   </linearGradient>
   <path fill="url(#SVGID_3_)" d="M21.027,42.146c0.04,0.033,0.083,0.069,0.127,0.104C21.109,42.216,21.068,42.181,21.027,42.146z&#xd;&#xa;&#x9;&#x9;&#x9; M22.014,42.894c0.01,0.007,0.021,0.014,0.029,0.021C22.034,42.907,22.023,42.9,22.014,42.894z M21.427,42.465&#xd;&#xa;&#x9;&#x9;&#x9;c0.042,0.032,0.083,0.066,0.127,0.099C21.509,42.53,21.47,42.498,21.427,42.465z M59.731,31.187&#xd;&#xa;&#x9;&#x9;&#x9;c-0.183-0.005-0.356-0.011-0.517-0.021C59.375,31.176,59.549,31.182,59.731,31.187z M23.313,43.678&#xd;&#xa;&#x9;&#x9;&#x9;c-0.068-0.035-0.136-0.071-0.202-0.108C23.177,43.606,23.243,43.643,23.313,43.678z M24.667,44.308&#xd;&#xa;&#x9;&#x9;&#x9;c0.028,0.012,0.059,0.021,0.086,0.032C24.727,44.328,24.696,44.319,24.667,44.308z M23.784,43.917&#xd;&#xa;&#x9;&#x9;&#x9;c0.061,0.03,0.119,0.061,0.182,0.088C23.903,43.977,23.845,43.947,23.784,43.917z M25.66,44.647&#xd;&#xa;&#x9;&#x9;&#x9;c-0.081-0.024-0.164-0.048-0.243-0.073C25.496,44.6,25.579,44.623,25.66,44.647z M30.19,34.823c0.002,0,0.005,0.002,0.008,0.002&#xd;&#xa;&#x9;&#x9;&#x9;c-0.002,0-0.002-0.004-0.004-0.004S30.19,34.823,30.19,34.823z M20.801,41.955c-0.03-0.027-0.062-0.053-0.091-0.079&#xd;&#xa;&#x9;&#x9;&#x9;C20.739,41.902,20.771,41.928,20.801,41.955z M29.572,45.138c-0.112,0.005-0.226,0.011-0.336,0.013&#xd;&#xa;&#x9;&#x9;&#x9;C29.346,45.148,29.46,45.143,29.572,45.138z M30.621,45.05c-0.125,0.016-0.248,0.028-0.371,0.04&#xd;&#xa;&#x9;&#x9;&#x9;C30.373,45.078,30.496,45.065,30.621,45.05z M20.391,41.62c0.024-0.001,0.048,0.008,0.07,0.028&#xd;&#xa;&#x9;&#x9;&#x9;C20.439,41.628,20.415,41.619,20.391,41.62C20.392,41.619,20.392,41.62,20.391,41.62z M20.298,41.686&#xd;&#xa;&#x9;&#x9;&#x9;c0.004-0.005,0.008-0.013,0.012-0.019C20.305,41.673,20.302,41.679,20.298,41.686z M31.688,44.865&#xd;&#xa;&#x9;&#x9;&#x9;c-0.115,0.024-0.229,0.042-0.342,0.064C31.459,44.907,31.572,44.89,31.688,44.865z M19.492,35.344&#xd;&#xa;&#x9;&#x9;&#x9;c-0.005,0-0.009-0.002-0.014-0.003c0.003,0,0.003,0.005,0.007,0.005C19.487,35.347,19.489,35.345,19.492,35.344z M48.336,24.237&#xd;&#xa;&#x9;&#x9;&#x9;c-0.026,0.018-0.05,0.005-0.069-0.009c0.011,0.008,0.018,0.021,0.032,0.021C48.311,24.249,48.323,24.245,48.336,24.237z&#xd;&#xa;&#x9;&#x9;&#x9; M26.506,44.869c-0.093-0.021-0.185-0.042-0.275-0.065C26.321,44.827,26.413,44.849,26.506,44.869z M48.251,24.218&#xd;&#xa;&#x9;&#x9;&#x9;c-0.015-0.022-0.022-0.051,0-0.077C48.228,24.168,48.234,24.196,48.251,24.218z M58.006,31.026&#xd;&#xa;&#x9;&#x9;&#x9;c0.128,0.023,0.275,0.047,0.443,0.07C58.282,31.073,58.133,31.049,58.006,31.026z M57.426,30.887&#xd;&#xa;&#x9;&#x9;&#x9;c-0.032-0.011-0.052-0.017-0.052-0.017S57.399,30.878,57.426,30.887z M57.465,30.899c0.035,0.01,0.078,0.021,0.133,0.036&#xd;&#xa;&#x9;&#x9;&#x9;C57.545,30.921,57.499,30.909,57.465,30.899z M57.918,31.008c-0.091-0.019-0.172-0.035-0.239-0.053&#xd;&#xa;&#x9;&#x9;&#x9;C57.746,30.973,57.828,30.99,57.918,31.008z M59.015,31.152c-0.17-0.013-0.323-0.028-0.465-0.046&#xd;&#xa;&#x9;&#x9;&#x9;C58.691,31.124,58.846,31.14,59.015,31.152z M28.287,45.129c0.053,0.004,0.107,0.003,0.16,0.006&#xd;&#xa;&#x9;&#x9;&#x9;C28.395,45.132,28.34,45.133,28.287,45.129z M27.375,45.03c-0.075-0.011-0.148-0.025-0.224-0.037&#xd;&#xa;&#x9;&#x9;&#x9;C27.227,45.005,27.3,45.02,27.375,45.03z M30.147,34.837c-0.007,0.003-0.016,0.003-0.021,0.009&#xd;&#xa;&#x9;&#x9;&#x9;C30.132,34.841,30.141,34.84,30.147,34.837z M39.894,16.68c0.136,0.02,0.272,0.031,0.408,0.055&#xd;&#xa;&#x9;&#x9;&#x9;C40.167,16.711,40.03,16.7,39.894,16.68z M41.005,16.895c0.104,0.026,0.209,0.043,0.313,0.073&#xd;&#xa;&#x9;&#x9;&#x9;C41.214,16.938,41.108,16.92,41.005,16.895z M19.532,35.33c0.007-0.004,0.014-0.005,0.021-0.011&#xd;&#xa;&#x9;&#x9;&#x9;C19.546,35.325,19.539,35.326,19.532,35.33z M39.272,16.599c-0.15-0.013-0.301-0.013-0.452-0.02&#xd;&#xa;&#x9;&#x9;&#x9;C38.972,16.585,39.122,16.586,39.272,16.599z M22.53,43.229c0.054,0.033,0.11,0.067,0.166,0.1&#xd;&#xa;&#x9;&#x9;&#x9;C22.64,43.295,22.583,43.262,22.53,43.229z M49.521,33.404c-0.002,0.016-0.002,0.031-0.005,0.047&#xd;&#xa;&#x9;&#x9;&#x9;C49.519,33.436,49.519,33.42,49.521,33.404z M49.426,33.687c-0.009,0.013-0.018,0.023-0.026,0.036&#xd;&#xa;&#x9;&#x9;&#x9;C49.408,33.71,49.418,33.699,49.426,33.687z M60.38,43.765c-0.071-0.008-0.147-0.018-0.226-0.028&#xd;&#xa;&#x9;&#x9;&#x9;C60.234,43.748,60.308,43.757,60.38,43.765z M48.923,33.964c0.007,0,0.015,0.004,0.021,0.004c0.011,0,0.019-0.007,0.029-0.007&#xd;&#xa;&#x9;&#x9;&#x9;C48.957,33.962,48.939,33.965,48.923,33.964z M60.001,43.713c-0.079-0.016-0.161-0.032-0.244-0.05&#xd;&#xa;&#x9;&#x9;&#x9;C59.841,43.681,59.922,43.697,60.001,43.713z M59.138,43.492c-0.097-0.034-0.194-0.077-0.292-0.119&#xd;&#xa;&#x9;&#x9;&#x9;C58.944,43.415,59.04,43.458,59.138,43.492z M34.13,46.134l-0.932,0.287c-1.367,0.422-2.752,0.637-4.12,0.638v0.216v2.751&#xd;&#xa;&#x9;&#x9;&#x9;c0.514,0.455,1.143,1.212,1.394,2.32c0.207,0.919,0.172,1.805,0.092,2.445c0.625,0.121,1.267,0.196,1.911,0.218&#xd;&#xa;&#x9;&#x9;&#x9;c0.045-2.727,0.754-4.211,1.37-4.989L34.13,46.134z M58.823,42.657c-0.167,0-0.337-0.005-0.528-0.015&#xd;&#xa;&#x9;&#x9;&#x9;c-0.141,0-0.262,0.09-0.303,0.227c-0.042,0.144,0.017,0.3,0.139,0.38c0.917,0.615,2.062,0.745,2.586,0.771&#xd;&#xa;&#x9;&#x9;&#x9;c-0.146,0.557-0.517,1.877-1.063,3.177c-0.448,1.058-1.527,1.74-2.748,1.74c-0.064,0-0.128-0.002-0.192-0.007&#xd;&#xa;&#x9;&#x9;&#x9;c-3.453-0.21-6.291-1.005-7.675-1.461c-0.72-0.236-1.245-0.873-1.37-1.662l-0.505-3.225l-0.03-0.188l-0.188-0.004&#xd;&#xa;&#x9;&#x9;&#x9;c-2.547-0.048-4.44-0.87-5.629-2.443c-2.46-3.256-1.297-8.779-0.884-10.393c0.023-0.089,0.004-0.185-0.056-0.263&#xd;&#xa;&#x9;&#x9;&#x9;c-0.068-0.09-0.179-0.145-0.289-0.145c-0.078,0-0.152,0.028-0.211,0.083c-0.215,0.211-0.384,0.45-0.502,0.711&#xd;&#xa;&#x9;&#x9;&#x9;c-1.819,3.982-1.858,8.218-0.1,11.055c1.324,2.136,3.502,3.325,6.305,3.443l1.273,6.113l0.016,0.071l0.054,0.049&#xd;&#xa;&#x9;&#x9;&#x9;c1.324,1.204,1.379,3.739,1.342,4.772c-0.012,0.33-0.225,0.627-0.543,0.755c-1.275,0.51-3.888,1.366-7.034,1.366&#xd;&#xa;&#x9;&#x9;&#x9;c-2.167,0-4.205-0.412-6.059-1.228c-0.307-0.135-0.509-0.448-0.515-0.799c-0.061-3.718,1.23-4.722,1.241-4.729l0.088-0.064&#xd;&#xa;&#x9;&#x9;&#x9;l0.007-0.106l0.378-5.746l0.008-0.126l-0.102-0.074c-0.045-0.031-4.396-3.237-5.232-9.828c-0.02-0.158-0.148-0.272-0.307-0.272&#xd;&#xa;&#x9;&#x9;&#x9;c-0.156,0-0.292,0.108-0.329,0.262c-0.342,1.426-1.144,6.241,2.463,9.62c-1.088,0.3-2.183,0.452-3.26,0.452&#xd;&#xa;&#x9;&#x9;&#x9;c-4.345,0-7.36-2.409-8.455-3.447c-0.061-0.059-0.141-0.09-0.222-0.09c-0.112,0-0.217,0.058-0.28,0.155&#xd;&#xa;&#x9;&#x9;&#x9;c-0.066,0.098-0.077,0.222-0.031,0.331c1.669,4.048,6.324,4.96,7.356,5.115v3.753v0.139l0.121,0.063&#xd;&#xa;&#x9;&#x9;&#x9;c0.01,0.006,1.042,0.564,1.314,1.765c0.233,1.03,0.043,2.08-0.031,2.414c-1.642,0.615-3.304,0.928-4.942,0.928&#xd;&#xa;&#x9;&#x9;&#x9;c-2.617,0-4.6-0.804-5.55-1.285c-0.438-0.221-0.668-0.746-0.559-1.278l0.865-4.257l0.024-0.119l-0.086-0.086l-1.646-1.653&#xd;&#xa;&#x9;&#x9;&#x9;c-0.805-0.811-1.374-1.762-1.646-2.751c-0.981-3.578-1.084-6.237-0.35-8.891c0.932-3.363,3.175-5.398,4.171-6.166&#xd;&#xa;&#x9;&#x9;&#x9;c-0.247,1.086-0.626,3.446,0.057,5.776c0.04,0.138,0.162,0.229,0.304,0.229c0.174,0,0.313-0.131,0.324-0.303&#xd;&#xa;&#x9;&#x9;&#x9;c0.094-1.436,0.492-5.062,2.142-7.698c3.563-5.689,8.6-8.578,12.198-10.001c1.324-0.523,2.717-0.79,4.138-0.79&#xd;&#xa;&#x9;&#x9;&#x9;c1.36,0,2.688,0.245,3.949,0.726c3.936,1.503,6.967,3.806,7.724,4.408l-1.877,2.076c-0.077,0.086-0.096,0.206-0.049,0.311&#xd;&#xa;&#x9;&#x9;&#x9;c0.047,0.105,0.151,0.174,0.265,0.174l0.104-0.012l0.057-0.039l6.104-4.083c0.398,0.656,0.526,1.392,0.377,2.188&#xd;&#xa;&#x9;&#x9;&#x9;c-0.22,1.183-0.999,2.174-1.628,2.594l-0.738,0.491l0.881-0.078l6.056-0.532c-0.062,0.635-0.443,2.378-2.763,3.23l-0.187,0.068&#xd;&#xa;&#x9;&#x9;&#x9;l0.044,0.194l0.548,2.423l0.027,0.119l0.114,0.043c0.038,0.014,0.926,0.338,2.797,0.338c0.477,0,0.978-0.021,1.496-0.063&#xd;&#xa;&#x9;&#x9;&#x9;c-0.802,2.612-3.129,2.927-3.231,2.94l-1.144,0.141l1.112,0.302c0.028,0.008,0.723,0.193,1.848,0.193&#xd;&#xa;&#x9;&#x9;&#x9;c1.87,0,4.67-0.501,7.558-2.841c0.153,2.092-0.59,5.228-2.669,7.636C63.907,41.064,61.888,42.657,58.823,42.657z M49.699,33.045&#xd;&#xa;&#x9;&#x9;&#x9;l-0.696-1.881c-0.18-0.485-0.641-0.823-1.121-0.823c-0.294,0-0.558,0.128-0.747,0.362c-0.291,0.361-0.439,0.741-0.442,1.128&#xd;&#xa;&#x9;&#x9;&#x9;c-0.005,0.918,0.658,1.71,1.92,2.291c0.108,0.049,0.22,0.075,0.332,0.075c0.256,0,0.501-0.132,0.655-0.354&#xd;&#xa;&#x9;&#x9;&#x9;C49.761,33.609,49.798,33.312,49.699,33.045z M58.256,43.06c0.14,0.096,0.285,0.176,0.433,0.247&#xd;&#xa;&#x9;&#x9;&#x9;C58.541,43.235,58.396,43.155,58.256,43.06z M58.291,42.872c0.004-0.001,0.007-0.004,0.011-0.004c-0.002,0-0.004,0-0.007,0&#xd;&#xa;&#x9;&#x9;&#x9;C58.293,42.868,58.293,42.872,58.291,42.872z M58.207,42.944c0-0.001,0-0.001,0-0.002C58.207,42.943,58.207,42.943,58.207,42.944z&#xd;&#xa;&#x9;&#x9;&#x9; M47.547,30.655c0.023-0.012,0.046-0.022,0.069-0.032C47.593,30.633,47.57,30.644,47.547,30.655z M47.893,30.568&#xd;&#xa;&#x9;&#x9;&#x9;c-0.004,0-0.006-0.002-0.011-0.002c-0.009,0-0.018,0.005-0.026,0.006C47.867,30.571,47.879,30.567,47.893,30.568z M48.145,30.611&#xd;&#xa;&#x9;&#x9;&#x9;c0.021,0.007,0.04,0.018,0.06,0.025C48.185,30.628,48.165,30.618,48.145,30.611z M48.384,30.731&#xd;&#xa;&#x9;&#x9;&#x9;c0.023,0.016,0.047,0.034,0.07,0.052C48.431,30.765,48.407,30.748,48.384,30.731z M59.318,43.548&#xd;&#xa;&#x9;&#x9;&#x9;c0.089,0.027,0.177,0.054,0.263,0.075C59.495,43.602,59.407,43.575,59.318,43.548z M38.908,57.694&#xd;&#xa;&#x9;&#x9;&#x9;c-0.097-0.01-0.193-0.021-0.289-0.032C38.715,57.674,38.811,57.685,38.908,57.694z M39.838,57.77&#xd;&#xa;&#x9;&#x9;&#x9;c-0.091-0.005-0.181-0.013-0.273-0.019C39.658,57.757,39.748,57.765,39.838,57.77z M57.063,49.151&#xd;&#xa;&#x9;&#x9;&#x9;c0.074-0.003,0.146-0.006,0.22-0.014C57.209,49.146,57.136,49.148,57.063,49.151z M35.493,56.922&#xd;&#xa;&#x9;&#x9;&#x9;c0.095,0.033,0.189,0.064,0.286,0.096C35.682,56.986,35.587,56.955,35.493,56.922z M57.543,49.096&#xd;&#xa;&#x9;&#x9;&#x9;c0.071-0.014,0.142-0.026,0.211-0.044C57.685,49.069,57.614,49.082,57.543,49.096z M36.481,57.233&#xd;&#xa;&#x9;&#x9;&#x9;c0.092,0.025,0.184,0.052,0.276,0.074C36.666,57.285,36.574,57.259,36.481,57.233z M37.764,57.531&#xd;&#xa;&#x9;&#x9;&#x9;c-0.025-0.005-0.049-0.008-0.074-0.014C37.715,57.523,37.738,57.526,37.764,57.531z M60.495,43.778&#xd;&#xa;&#x9;&#x9;&#x9;c0.074,0.007,0.143,0.012,0.203,0.016C60.637,43.79,60.57,43.785,60.495,43.778z M40.034,29.393&#xd;&#xa;&#x9;&#x9;&#x9;c0.016-0.014,0.035-0.019,0.056-0.018c-0.001,0-0.001-0.001-0.001-0.001C40.068,29.374,40.048,29.38,40.034,29.393z&#xd;&#xa;&#x9;&#x9;&#x9; M40.185,29.421c-0.004-0.005-0.009-0.009-0.014-0.013C40.177,29.413,40.18,29.417,40.185,29.421z M54.971,53.489l-0.064-0.121&#xd;&#xa;&#x9;&#x9;&#x9;l0.078-0.113l1.654-2.435c-0.007-0.001-0.014-0.001-0.021-0.001c-3.456-0.21-6.308-0.955-8.091-1.542&#xd;&#xa;&#x9;&#x9;&#x9;c-0.109-0.037-0.216-0.076-0.319-0.123l0.163,0.65c1.367,1.563,1.559,3.981,1.54,5.379c1.156,0.622,2.399,1.052,3.701,1.279&#xd;&#xa;&#x9;&#x9;&#x9;c0.06,0.009,0.119,0.014,0.179,0.014c0.305,0,0.585-0.135,0.747-0.364C55.016,55.443,55.478,54.445,54.971,53.489z M58.623,48.691&#xd;&#xa;&#x9;&#x9;&#x9;c-0.059,0.034-0.12,0.063-0.18,0.094C58.503,48.754,58.564,48.726,58.623,48.691z M58.849,48.534&#xd;&#xa;&#x9;&#x9;&#x9;c0.054-0.036,0.108-0.072,0.158-0.113C58.957,48.462,58.902,48.498,58.849,48.534z M58.203,48.903&#xd;&#xa;&#x9;&#x9;&#x9;c-0.065,0.025-0.132,0.047-0.198,0.07C58.071,48.95,58.139,48.929,58.203,48.903z M48.651,30.987&#xd;&#xa;&#x9;&#x9;&#x9;c-0.017-0.022-0.036-0.043-0.055-0.064C48.614,30.944,48.635,30.964,48.651,30.987z M26.399,56.043&#xd;&#xa;&#x9;&#x9;&#x9;c0.354-0.065,0.717-0.151,1.086-0.251C27.117,55.892,26.753,55.978,26.399,56.043z M26.312,56.062&#xd;&#xa;&#x9;&#x9;&#x9;c-0.382,0.068-0.752,0.114-1.116,0.151C25.559,56.176,25.929,56.13,26.312,56.062z M40.699,57.794&#xd;&#xa;&#x9;&#x9;&#x9;c0.374-0.001,0.74-0.017,1.1-0.038C41.439,57.777,41.073,57.793,40.699,57.794z M42.848,57.659&#xd;&#xa;&#x9;&#x9;&#x9;c-0.246,0.028-0.499,0.053-0.756,0.073C42.349,57.712,42.602,57.688,42.848,57.659z M47.35,56.585&#xd;&#xa;&#x9;&#x9;&#x9;c0.167-0.061,0.324-0.121,0.455-0.174C47.673,56.465,47.518,56.523,47.35,56.585z M43.868,57.509&#xd;&#xa;&#x9;&#x9;&#x9;c-0.224,0.039-0.453,0.074-0.688,0.106C43.415,57.583,43.645,57.549,43.868,57.509z M24.923,56.235&#xd;&#xa;&#x9;&#x9;&#x9;c-0.316,0.024-0.625,0.039-0.925,0.041C24.297,56.274,24.607,56.26,24.923,56.235z M20.569,55.845&#xd;&#xa;&#x9;&#x9;&#x9;c0.191,0.053,0.391,0.1,0.597,0.144C20.96,55.944,20.761,55.897,20.569,55.845z M29.033,55.296&#xd;&#xa;&#x9;&#x9;&#x9;c-0.421,0.161-0.832,0.293-1.237,0.409C28.201,55.589,28.611,55.457,29.033,55.296z M19.298,55.434&#xd;&#xa;&#x9;&#x9;&#x9;c0.126,0.048,0.259,0.095,0.396,0.145C19.557,55.528,19.424,55.481,19.298,55.434z M18.783,55.22&#xd;&#xa;&#x9;&#x9;&#x9;c0.107,0.05,0.221,0.097,0.34,0.146C19.004,55.316,18.892,55.27,18.783,55.22z M19.864,55.637&#xd;&#xa;&#x9;&#x9;&#x9;c0.198,0.064,0.405,0.128,0.622,0.188C20.268,55.765,20.062,55.701,19.864,55.637z M22.18,56.163&#xd;&#xa;&#x9;&#x9;&#x9;c0.198,0.028,0.403,0.049,0.611,0.066C22.583,56.212,22.377,56.191,22.18,56.163z M21.395,56.033&#xd;&#xa;&#x9;&#x9;&#x9;c0.171,0.035,0.345,0.064,0.525,0.092C21.74,56.098,21.566,56.068,21.395,56.033z M44.146,57.46&#xd;&#xa;&#x9;&#x9;&#x9;c0.292-0.054,0.575-0.112,0.845-0.175C44.721,57.348,44.438,57.406,44.146,57.46z M59.213,42.857&#xd;&#xa;&#x9;&#x9;&#x9;c0.192-0.009,0.384-0.019,0.569-0.04C59.596,42.839,59.405,42.849,59.213,42.857z M60.395,42.723&#xd;&#xa;&#x9;&#x9;&#x9;c0.18-0.034,0.359-0.067,0.531-0.112C60.753,42.655,60.574,42.688,60.395,42.723z M23,56.247c0.281,0.021,0.569,0.032,0.866,0.033&#xd;&#xa;&#x9;&#x9;&#x9;C23.568,56.279,23.28,56.268,23,56.247z M64.645,40.49c-0.119,0.116-0.247,0.224-0.373,0.333&#xd;&#xa;&#x9;&#x9;&#x9;C64.397,40.714,64.525,40.605,64.645,40.49z M60.573,31.182c-0.214,0.006-0.424,0.011-0.614,0.01c0.046,0,0.085,0.002,0.133,0.002&#xd;&#xa;&#x9;&#x9;&#x9;C60.241,31.194,60.41,31.187,60.573,31.182z M63.432,41.471c0.138-0.095,0.279-0.188,0.412-0.288&#xd;&#xa;&#x9;&#x9;&#x9;C63.711,41.284,63.57,41.376,63.432,41.471z M60.761,43.797c0.082,0.004,0.151,0.006,0.192,0.006c0.033,0,0.051-0.001,0.051-0.001&#xd;&#xa;&#x9;&#x9;&#x9;S60.911,43.803,60.761,43.797z M62.505,42.013c0.152-0.077,0.306-0.151,0.45-0.236C62.811,41.862,62.657,41.936,62.505,42.013z&#xd;&#xa;&#x9;&#x9;&#x9; M54.431,56.513c0.026-0.02,0.055-0.033,0.08-0.053C54.485,56.479,54.457,56.493,54.431,56.513z M59.633,47.715&#xd;&#xa;&#x9;&#x9;&#x9;c-0.027,0.044-0.061,0.081-0.091,0.122C59.572,47.796,59.605,47.759,59.633,47.715z M53.852,56.696&#xd;&#xa;&#x9;&#x9;&#x9;c0.039-0.001,0.076-0.006,0.114-0.012C53.929,56.69,53.891,56.695,53.852,56.696z M46.543,56.859&#xd;&#xa;&#x9;&#x9;&#x9;c-0.153,0.049-0.318,0.098-0.487,0.146C46.225,56.957,46.389,56.908,46.543,56.859z M46.772,56.784&#xd;&#xa;&#x9;&#x9;&#x9;c0.143-0.047,0.277-0.093,0.402-0.138C47.049,56.691,46.916,56.736,46.772,56.784z M59.216,48.223&#xd;&#xa;&#x9;&#x9;&#x9;c0.043-0.043,0.09-0.082,0.131-0.128C59.306,48.141,59.259,48.18,59.216,48.223z M54.148,56.644&#xd;&#xa;&#x9;&#x9;&#x9;c0.036-0.012,0.072-0.021,0.106-0.036C54.22,56.622,54.186,56.632,54.148,56.644z M45.024,57.278&#xd;&#xa;&#x9;&#x9;&#x9;c0.283-0.066,0.549-0.138,0.803-0.207C45.573,57.141,45.308,57.212,45.024,57.278z M61.983,42.259&#xd;&#xa;&#x9;&#x9;&#x9;c-0.159,0.066-0.325,0.121-0.491,0.177C61.658,42.38,61.823,42.325,61.983,42.259z M18.648,55.161&#xd;&#xa;&#x9;&#x9;&#x9;c-0.145-0.065-0.28-0.128-0.4-0.19C18.369,55.033,18.505,55.096,18.648,55.161z M61.843,34.567&#xd;&#xa;&#x9;&#x9;&#x9;c-0.097,0.016-0.192,0.029-0.286,0.041C61.651,34.597,61.745,34.583,61.843,34.567z M62.422,34.456&#xd;&#xa;&#x9;&#x9;&#x9;c0.088-0.019,0.174-0.034,0.264-0.056C62.595,34.421,62.51,34.437,62.422,34.456z M63.573,34.148&#xd;&#xa;&#x9;&#x9;&#x9;c0.046-0.016,0.093-0.036,0.138-0.051C63.665,34.112,63.619,34.132,63.573,34.148z M64.833,33.64&#xd;&#xa;&#x9;&#x9;&#x9;c-0.108,0.05-0.218,0.104-0.324,0.149C64.616,33.743,64.725,33.69,64.833,33.64z M66.551,32.669c0.11-0.073,0.22-0.142,0.33-0.22&#xd;&#xa;&#x9;&#x9;&#x9;C66.771,32.527,66.661,32.596,66.551,32.669z M65.856,33.106c-0.12,0.07-0.24,0.138-0.36,0.202&#xd;&#xa;&#x9;&#x9;&#x9;C65.617,33.244,65.736,33.176,65.856,33.106z M58.815,34.607c-0.076-0.012-0.143-0.023-0.199-0.035&#xd;&#xa;&#x9;&#x9;&#x9;C58.672,34.583,58.739,34.595,58.815,34.607z M59.16,34.652c-0.112-0.012-0.217-0.025-0.307-0.04&#xd;&#xa;&#x9;&#x9;&#x9;C58.943,34.627,59.048,34.641,59.16,34.652z M59.257,34.662c0.09,0.009,0.187,0.017,0.289,0.024&#xd;&#xa;&#x9;&#x9;&#x9;C59.443,34.679,59.347,34.671,59.257,34.662z M59.674,34.693c0.118,0.006,0.242,0.01,0.374,0.011&#xd;&#xa;&#x9;&#x9;&#x9;C59.917,34.703,59.791,34.7,59.674,34.693z M58.559,34.562c-0.043-0.009-0.077-0.016-0.104-0.022&#xd;&#xa;&#x9;&#x9;&#x9;C58.48,34.545,58.519,34.553,58.559,34.562z M58.425,34.532c-0.025-0.006-0.041-0.01-0.041-0.01S58.404,34.528,58.425,34.532z&#xd;&#xa;&#x9;&#x9;&#x9; M67.644,35.167c-0.036,0.144-0.084,0.289-0.127,0.433C67.56,35.456,67.607,35.311,67.644,35.167z M61.053,34.665&#xd;&#xa;&#x9;&#x9;&#x9;c-0.083,0.007-0.167,0.015-0.246,0.02C60.886,34.68,60.969,34.672,61.053,34.665z M61.891,31.103&#xd;&#xa;&#x9;&#x9;&#x9;c-0.368,0.037-0.708,0.059-1.03,0.073C61.183,31.161,61.522,31.139,61.891,31.103z M37.615,16.586&#xd;&#xa;&#x9;&#x9;&#x9;c0.207-0.012,0.416-0.028,0.624-0.029C38.031,16.558,37.822,16.574,37.615,16.586z M67.191,36.553&#xd;&#xa;&#x9;&#x9;&#x9;c0.057-0.146,0.118-0.292,0.169-0.438C67.31,36.262,67.248,36.407,67.191,36.553z M60.285,34.704c-0.048,0-0.1,0.003-0.146,0.003&#xd;&#xa;&#x9;&#x9;&#x9;c0.012,0,0.021,0,0.033,0C60.208,34.708,60.249,34.704,60.285,34.704z M36.521,16.704c0.219-0.035,0.438-0.073,0.656-0.093&#xd;&#xa;&#x9;&#x9;&#x9;C36.958,16.631,36.74,16.669,36.521,16.704z M67.841,34.231c-0.022,0.135-0.057,0.274-0.085,0.412&#xd;&#xa;&#x9;&#x9;&#x9;C67.784,34.505,67.818,34.366,67.841,34.231z M13.001,41.6c-0.109-0.817-0.162-1.592-0.162-2.353&#xd;&#xa;&#x9;&#x9;&#x9;c-0.195,0.038-0.393,0.058-0.588,0.058c-1.078,0-2.059-0.55-2.63-1.438c-0.081,0.575,0.033,1.356,0.451,2.061&#xd;&#xa;&#x9;&#x9;&#x9;C10.489,40.628,11.331,41.469,13.001,41.6z M36.124,16.762c-0.241,0.047-0.48,0.11-0.718,0.171&#xd;&#xa;&#x9;&#x9;&#x9;C35.644,16.872,35.883,16.809,36.124,16.762z M35.084,17.012c-0.343,0.1-0.682,0.215-1.018,0.348&#xd;&#xa;&#x9;&#x9;&#x9;C34.402,17.228,34.741,17.113,35.084,17.012z M66.28,38.407c0.085-0.141,0.174-0.278,0.252-0.422&#xd;&#xa;&#x9;&#x9;&#x9;C66.454,38.128,66.365,38.266,66.28,38.407z M65.697,39.275c0.099-0.132,0.2-0.263,0.292-0.4&#xd;&#xa;&#x9;&#x9;&#x9;C65.897,39.012,65.796,39.143,65.697,39.275z M66.779,37.495c0.071-0.146,0.146-0.289,0.211-0.436&#xd;&#xa;&#x9;&#x9;&#x9;C66.926,37.207,66.85,37.35,66.779,37.495z M65.361,39.717c-0.106,0.126-0.223,0.247-0.334,0.37&#xd;&#xa;&#x9;&#x9;&#x9;C65.14,39.964,65.255,39.843,65.361,39.717z M67.908,33.688c0.013-0.122,0.034-0.247,0.043-0.366&#xd;&#xa;&#x9;&#x9;&#x9;C67.942,33.442,67.921,33.567,67.908,33.688z M67.967,32.746c0.001-0.096,0.01-0.197,0.007-0.29&#xd;&#xa;&#x9;&#x9;&#x9;C67.977,32.549,67.968,32.65,67.967,32.746z"/>
  </g>
 </g>
</svg>
