<?xml version="1.0"?>
<!-- Converted with SVG Converter - Version 0.9.5 (Compiled Mon May 30 09:08:51 2011) - Copyright (C) 2011 Nokia -->
<svg xmlns="http://www.w3.org/2000/svg" width="96px" x="0px" version="1.1" y="0px" height="96px" viewBox="-7.667 -7.334 96 96" xmlns:xlink="http://www.w3.org/1999/xlink" baseProfile="tiny" xml:space="preserve">
 <path stroke-opacity="0.4" fill="#010101" fill-opacity="0.4" id="SHADOW_1_" d="M80.023,41c0,29.633-10.364,40-40,40c-29.635,0-40-10.367-40-40&#xd;&#xa;&#x9;c0-29.635,10.366-40,40-40C69.659,1,80.023,11.365,80.023,41z"/>
 <linearGradient id="BLUE_1_2_" y1="0.0107" x1="39.9995" y2="79.9897" gradientUnits="userSpaceOnUse" x2="39.9995">
  <stop offset="0" style="stop-color:#3F403F"/>
  <stop offset="1" style="stop-color:#232323"/>
 </linearGradient>
 <path fill="url(#BLUE_1_2_)" id="BLUE_1_1_" d="M0,39.989c0,29.633,10.365,40,40,40c29.637,0,40-10.367,40-40&#xd;&#xa;&#x9;c0-28.985-9.926-39.53-38.091-39.979h-3.817C9.928,0.459,0,11.004,0,39.989z"/>
 <linearGradient id="HIGHLIGHT_BLU1_2_" y1="0.2559" x1="39.9995" y2="79.5043" gradientUnits="userSpaceOnUse" x2="39.9995">
  <stop offset="0.0364" style="stop-color:#FFFEF4"/>
  <stop offset="0.1197" style="stop-color:#F2F1EB"/>
  <stop offset="0.2606" style="stop-color:#D8DAD9"/>
  <stop offset="0.4408" style="stop-color:#B1B8BF"/>
  <stop offset="0.5394" style="stop-color:#9BA6B1"/>
  <stop offset="1" style="stop-color:#5C6173"/>
 </linearGradient>
 <path stroke-opacity="0.25" fill="url(#HIGHLIGHT_BLU1_2_)" fill-opacity="0.25" id="HIGHLIGHT_BLU1_1_" d="M40,0C10.365,0,0,10.365,0,40&#xd;&#xa;&#x9;c0,29.633,10.365,40,40,40c29.637,0,40-10.367,40-40C80,10.365,69.637,0,40,0z M40,79.023C10.842,79.023,1,69.176,1,40&#xd;&#xa;&#x9;S10.842,0.977,40,0.977S79,10.824,79,40S69.158,79.023,40,79.023z"/>
 <path stroke-opacity="0.05" fill-opacity="0.05" d="M74.604,40.249c-0.431-0.865-1.293-1.381-2.323-1.381h-0.001c-0.974,0.034-1.846,0.638-2.222,1.541&#xd;&#xa;&#x9;c-0.043,0.104-0.098,0.235-0.151,0.36c-0.192-0.047-0.39-0.07-0.59-0.07c-0.095,0-0.189,0.005-0.283,0.016&#xd;&#xa;&#x9;c-0.102-0.675-0.244-1.34-0.435-2.019c-1.611-5.793-6.132-8.584-6.323-8.701c-0.39-0.236-0.837-0.36-1.293-0.36&#xd;&#xa;&#x9;c-0.012,0-0.023,0-0.035,0c-0.104-0.185-0.213-0.367-0.324-0.543c-4.29-6.814-10.338-10.269-14.657-11.967&#xd;&#xa;&#x9;c-1.771-0.697-3.632-1.05-5.53-1.05c-1.82,0-3.601,0.326-5.293,0.969c-4.539,1.725-7.66,4.116-8.638,4.923l-2.548-1.695&#xd;&#xa;&#x9;c-0.411-0.275-0.891-0.421-1.386-0.421c-0.809,0-1.573,0.396-2.044,1.059c-0.901,1.277-1.263,2.763-1.056,4.318&#xd;&#xa;&#x9;c-2.66-0.232-2.667-0.232-2.761-0.232c-0.613,0-1.204,0.225-1.663,0.633c-0.513,0.458-0.817,1.107-0.834,1.774&#xd;&#xa;&#x9;c-0.004,0.109-0.074,2.669,2.621,4.592c-0.079,0.001-0.16,0.002-0.241,0.002c-0.553,0-1.128-0.029-1.966-0.099&#xd;&#xa;&#x9;c-0.725,0-1.414,0.315-1.892,0.866c-0.477,0.552-0.686,1.282-0.583,1.992c-0.858-0.429-1.691-0.986-2.484-1.664&#xd;&#xa;&#x9;c-0.453-0.387-1.029-0.6-1.625-0.6c-0.3,0-0.599,0.055-0.89,0.163C6.3,32.979,5.692,33.74,5.565,34.642&#xd;&#xa;&#x9;c-0.493,3.487,0.954,7.985,3.519,10.938c1.168,1.345,2.529,2.381,4.05,3.082c0.008,0.045,0.018,0.091,0.029,0.137&#xd;&#xa;&#x9;c0.086,0.357,0.559,2.238,1.382,4.181c0.729,1.713,2.297,2.987,4.158,3.409c0.002,0.395,0.097,0.787,0.28,1.141l0.553,1.063&#xd;&#xa;&#x9;c-0.355,1.986,0.74,3.505,1.16,4.087c0.693,0.964,1.833,1.54,3.047,1.54c0.22,0,0.44-0.018,0.662-0.057&#xd;&#xa;&#x9;c0.388-0.066,0.659-0.108,0.874-0.139c0.975-0.145,1.259-0.246,2.337-0.843c0.004-0.002,0.009-0.004,0.013-0.007&#xd;&#xa;&#x9;c0.393,0.47,0.903,0.842,1.476,1.07c1.578,0.628,4.808,1.681,8.706,1.681c2.749,0,5.348-0.527,7.726-1.567&#xd;&#xa;&#x9;c0.684-0.298,1.26-0.802,1.652-1.437c0.106,0.011,0.213,0.017,0.321,0.017c0.322,0,0.671-0.043,1.137-0.142&#xd;&#xa;&#x9;c0.129-0.027,0.255-0.065,0.377-0.112c0.195,0.151,0.413,0.273,0.642,0.358c2.148,0.82,4.336,1.236,6.504,1.236&#xd;&#xa;&#x9;c3.263,0,5.772-0.919,7.303-1.689c1.585-0.796,2.437-2.604,2.071-4.397l-0.678-3.309l0.847-0.847&#xd;&#xa;&#x9;c1.217-1.215,2.085-2.669,2.51-4.204c0.1-0.364,0.192-0.724,0.277-1.076c0.215,0.053,0.442,0.08,0.684,0.08c0,0,0.001,0,0.002,0&#xd;&#xa;&#x9;c2.979-0.098,4.467-1.561,5.19-2.771C75.727,43.801,75.115,41.27,74.604,40.249z"/>
 <path stroke-opacity="0.07" fill-opacity="0.07" d="M74.156,40.472c-0.345-0.692-1.033-1.105-1.858-1.105h-0.001c-0.779,0.027-1.477,0.511-1.777,1.232&#xd;&#xa;&#x9;c-0.093,0.224-0.238,0.574-0.323,0.731c-0.098-0.001-0.206-0.02-0.32-0.053c-0.181-0.053-0.369-0.08-0.56-0.08&#xd;&#xa;&#x9;c-0.242,0-0.481,0.044-0.707,0.129c-0.097-0.844-0.26-1.667-0.492-2.498c-1.558-5.598-5.915-8.294-6.101-8.407&#xd;&#xa;&#x9;c-0.312-0.188-0.669-0.288-1.034-0.288c-0.106,0-0.213,0.008-0.317,0.025c-0.147-0.275-0.303-0.544-0.465-0.802&#xd;&#xa;&#x9;c-4.218-6.7-10.168-10.098-14.417-11.768c-1.712-0.673-3.512-1.015-5.348-1.015c-1.759,0-3.48,0.315-5.116,0.936&#xd;&#xa;&#x9;c-5.124,1.947-8.366,4.716-8.78,5.08l-2.862-1.904c-0.329-0.22-0.712-0.336-1.108-0.336c-0.647,0-1.258,0.316-1.635,0.847&#xd;&#xa;&#x9;c-0.889,1.261-1.206,2.744-0.917,4.289c0.019,0.098,0.04,0.197,0.063,0.296c-3.292-0.288-3.297-0.288-3.372-0.288&#xd;&#xa;&#x9;c-0.49,0-0.962,0.179-1.33,0.506c-0.41,0.366-0.654,0.886-0.668,1.421c-0.004,0.099-0.065,2.438,2.475,4.209&#xd;&#xa;&#x9;c0.235,0.163,0.498,0.273,0.775,0.324l-0.096,0.48c-0.391,0.04-0.817,0.06-1.273,0.06c-0.564,0-1.157-0.03-1.966-0.099&#xd;&#xa;&#x9;c-0.58,0-1.131,0.252-1.514,0.692c-0.424,0.491-0.584,1.159-0.429,1.784c0.064,0.261,0.14,0.515,0.226,0.762&#xd;&#xa;&#x9;c-1.245-0.478-2.441-1.203-3.568-2.165c-0.362-0.31-0.823-0.48-1.3-0.48c-0.24,0-0.479,0.043-0.712,0.13&#xd;&#xa;&#x9;c-0.681,0.26-1.167,0.869-1.269,1.59c-0.474,3.355,0.925,7.689,3.401,10.54c1.186,1.366,2.576,2.397,4.135,3.068&#xd;&#xa;&#x9;c0.006,0.121,0.024,0.241,0.053,0.361c0.085,0.352,0.552,2.204,1.356,4.102c0.732,1.72,2.352,2.922,4.237,3.197&#xd;&#xa;&#x9;c-0.089,0.441-0.028,0.907,0.185,1.318l0.634,1.22c-0.411,1.856,0.638,3.311,1.041,3.869c0.6,0.834,1.587,1.332,2.642,1.332&#xd;&#xa;&#x9;c0.191,0,0.383-0.016,0.576-0.049c0.395-0.068,0.671-0.11,0.886-0.141c0.916-0.136,1.139-0.217,2.169-0.786&#xd;&#xa;&#x9;c0.135-0.074,0.259-0.161,0.371-0.261c0.355,0.578,0.893,1.037,1.544,1.297c1.544,0.614,4.705,1.646,8.521,1.646&#xd;&#xa;&#x9;c2.681,0,5.212-0.514,7.526-1.525c0.698-0.305,1.256-0.849,1.586-1.53c0.187,0.045,0.383,0.068,0.588,0.068&#xd;&#xa;&#x9;c0.287,0,0.604-0.04,1.03-0.13c0.202-0.044,0.394-0.117,0.57-0.218c0.203,0.214,0.453,0.381,0.733,0.485&#xd;&#xa;&#x9;c2.092,0.799,4.22,1.203,6.325,1.203c3.162,0,5.595-0.89,7.078-1.637c1.384-0.694,2.126-2.277,1.806-3.85l-0.731-3.572l1.037-1.037&#xd;&#xa;&#x9;c1.156-1.154,1.979-2.532,2.381-3.983c0.151-0.551,0.285-1.09,0.402-1.613c0.298,0.162,0.646,0.25,1.025,0.25c0,0,0,0,0.001,0&#xd;&#xa;&#x9;c2.754-0.09,4.118-1.424,4.777-2.527C75.186,43.732,74.626,41.41,74.156,40.472z"/>
 <path stroke-opacity="0.1" fill-opacity="0.1" d="M73.709,40.695c-0.259-0.519-0.772-0.829-1.394-0.829h-0.001c-0.584,0.021-1.107,0.383-1.333,0.924&#xd;&#xa;&#x9;c-0.431,1.04-0.456,1.04-0.771,1.04c-0.15,0-0.309-0.024-0.476-0.073c-0.137-0.04-0.278-0.06-0.419-0.06&#xd;&#xa;&#x9;c-0.327,0-0.65,0.109-0.908,0.307c-0.081,0.063-0.155,0.132-0.222,0.208c-0.07-1.114-0.254-2.188-0.551-3.249&#xd;&#xa;&#x9;c-1.507-5.415-5.699-8.005-5.878-8.113c-0.233-0.141-0.502-0.216-0.775-0.216c-0.198,0-0.395,0.04-0.576,0.115&#xd;&#xa;&#x9;c-0.195-0.395-0.406-0.771-0.629-1.125c-4.146-6.585-9.997-9.926-14.177-11.569c-1.653-0.65-3.391-0.98-5.165-0.98&#xd;&#xa;&#x9;c-1.698,0-3.359,0.304-4.938,0.903c-5.284,2.008-8.53,4.9-8.665,5.022c-0.082,0.073-0.154,0.154-0.217,0.242l-3.216-2.14&#xd;&#xa;&#x9;c-0.247-0.165-0.535-0.252-0.831-0.252c-0.486,0-0.944,0.237-1.227,0.635c-0.81,1.148-1.098,2.5-0.833,3.909&#xd;&#xa;&#x9;c0.06,0.319,0.148,0.638,0.262,0.95c-4.004-0.35-4.005-0.35-4.063-0.35c-0.368,0-0.722,0.134-0.997,0.379&#xd;&#xa;&#x9;c-0.308,0.274-0.491,0.666-0.501,1.068c-0.003,0.087-0.056,2.164,2.26,3.779c0.253,0.176,0.549,0.269,0.857,0.269&#xd;&#xa;&#x9;c0.081,0,0.16-0.006,0.239-0.019l-0.282,1.418c-0.401,0.057-0.963,0.107-1.693,0.107c-0.578,0-1.188-0.031-1.966-0.099&#xd;&#xa;&#x9;c-0.435,0-0.848,0.188-1.135,0.519c-0.318,0.368-0.438,0.869-0.321,1.338c0.151,0.616,0.368,1.185,0.647,1.701&#xd;&#xa;&#x9;c-1.692-0.455-3.302-1.328-4.8-2.605c-0.271-0.232-0.617-0.36-0.975-0.36c-0.18,0-0.358,0.032-0.534,0.098&#xd;&#xa;&#x9;c-0.511,0.195-0.875,0.652-0.952,1.193c-0.455,3.222,0.895,7.393,3.284,10.142c1.217,1.402,2.652,2.433,4.271,3.067&#xd;&#xa;&#x9;c-0.028,0.188-0.021,0.383,0.025,0.572c0.084,0.347,0.544,2.171,1.331,4.023c0.75,1.76,2.504,2.909,4.492,2.953&#xd;&#xa;&#x9;c-0.005,0.008-0.011,0.016-0.016,0.023c-0.292,0.451-0.319,1.027-0.071,1.505l0.721,1.387c-0.469,1.717,0.53,3.105,0.916,3.641&#xd;&#xa;&#x9;c0.506,0.704,1.342,1.124,2.236,1.124c0.163,0,0.327-0.014,0.491-0.042c0.401-0.069,0.682-0.111,0.898-0.143&#xd;&#xa;&#x9;c0.853-0.126,1.021-0.188,2.002-0.729c0.349-0.191,0.601-0.507,0.712-0.875c0.195,0.843,0.797,1.554,1.627,1.885&#xd;&#xa;&#x9;c1.511,0.602,4.604,1.61,8.336,1.61c2.611,0,5.076-0.499,7.326-1.483c0.734-0.32,1.277-0.957,1.5-1.716&#xd;&#xa;&#x9;c0.236,0.131,0.526,0.212,0.874,0.212c0.25,0,0.534-0.036,0.924-0.118c0.31-0.067,0.578-0.227,0.78-0.443&#xd;&#xa;&#x9;c0.167,0.335,0.455,0.6,0.809,0.732c2.034,0.776,4.102,1.17,6.146,1.17c3.062,0,5.417-0.86,6.854-1.583&#xd;&#xa;&#x9;c1.182-0.594,1.815-1.952,1.54-3.303l-0.785-3.836l1.228-1.228c1.095-1.093,1.874-2.394,2.252-3.763&#xd;&#xa;&#x9;c0.233-0.849,0.424-1.659,0.572-2.44c0.045,0.072,0.097,0.142,0.155,0.206c0.283,0.32,0.691,0.504,1.12,0.504c0,0,0.042,0,0.047,0&#xd;&#xa;&#x9;c2.529-0.082,3.769-1.286,4.364-2.283C74.646,43.662,74.136,41.548,73.709,40.695z M29.37,53.716&#xd;&#xa;&#x9;c-0.037-0.031-0.075-0.061-0.115-0.088c0.243-0.124,0.471-0.271,0.68-0.44l-0.256,0.889C29.597,53.943,29.494,53.821,29.37,53.716z&#xd;&#xa;&#x9; M44.947,49.577l-0.009-0.149c0.496-0.202,1.104-0.508,1.737-0.964c-0.061,0.254-0.054,0.524,0.025,0.782&#xd;&#xa;&#x9;c0.127,0.418,0.431,0.756,0.821,0.932c-0.709-0.215-1.068-0.442-1.069-0.442c-0.259-0.189-0.564-0.289-0.886-0.289&#xd;&#xa;&#x9;C45.351,49.446,45.137,49.492,44.947,49.577z M50.665,50.895c-0.1-0.087-0.213-0.159-0.335-0.217&#xd;&#xa;&#x9;c0.143,0.013,0.283,0.024,0.425,0.035C50.721,50.771,50.691,50.832,50.665,50.895z"/>
 <path stroke-opacity="0.15" fill-opacity="0.15" d="M28.814,56.307c0.076-0.085,0.136-0.181,0.178-0.282l0.327-0.779c0.17-0.404,0.059-0.866-0.274-1.148&#xd;&#xa;&#x9;c-0.18-0.153-0.411-0.238-0.648-0.238c-0.188,0-0.371,0.053-0.529,0.151c-0.178,0.111-0.374,0.202-0.58,0.27&#xd;&#xa;&#x9;c-1.777,0.581-5.682,1.08-5.896,1.103l-0.189-0.006c-0.342,0-0.656,0.172-0.84,0.458c-0.194,0.301-0.212,0.685-0.047,1.003&#xd;&#xa;&#x9;l0.814,1.568c-0.532,1.567,0.382,2.84,0.784,3.397c0.413,0.573,1.097,0.916,1.83,0.916c0.135,0,0.27-0.012,0.406-0.035&#xd;&#xa;&#x9;c0.408-0.07,0.693-0.113,0.91-0.144c0.786-0.116,0.906-0.16,1.835-0.674c0.328-0.18,0.526-0.524,0.517-0.898&#xd;&#xa;&#x9;C27.381,59.667,27.493,57.77,28.814,56.307z M73.262,40.918c-0.17-0.341-0.512-0.552-0.928-0.552c0,0-0.001,0-0.002,0&#xd;&#xa;&#x9;c-0.39,0.014-0.738,0.255-0.889,0.616c-0.501,1.21-0.628,1.349-1.232,1.349c-0.199,0-0.404-0.031-0.613-0.093&#xd;&#xa;&#x9;c-0.092-0.026-0.187-0.04-0.281-0.04c-0.219,0-0.434,0.073-0.605,0.205c-0.253,0.192-0.4,0.496-0.395,0.814&#xd;&#xa;&#x9;c0.02,0.949-0.047,1.922-0.201,2.974c-0.043,0.293,0.046,0.589,0.244,0.81c0.188,0.213,0.461,0.335,0.746,0.335h0.031&#xd;&#xa;&#x9;c2.303-0.074,3.419-1.149,3.95-2.039C74.104,43.593,73.646,41.688,73.262,40.918z M61.5,31.279&#xd;&#xa;&#x9;c-0.156-0.094-0.336-0.144-0.518-0.144c-0.224,0-0.442,0.076-0.617,0.213c-0.059,0.046-0.11,0.098-0.157,0.154&#xd;&#xa;&#x9;c-0.258-0.58-0.543-1.117-0.854-1.611c-4.074-6.472-9.828-9.755-13.937-11.371c-1.595-0.627-3.271-0.946-4.982-0.946&#xd;&#xa;&#x9;c-1.637,0-3.239,0.293-4.76,0.871c-5.188,1.971-8.376,4.807-8.509,4.927c-0.186,0.167-0.296,0.389-0.325,0.621l-3.719-2.475&#xd;&#xa;&#x9;c-0.165-0.11-0.356-0.168-0.554-0.168c-0.324,0-0.629,0.158-0.818,0.423c-0.73,1.035-0.99,2.255-0.751,3.528&#xd;&#xa;&#x9;c0.182,0.97,0.647,1.929,1.301,2.703l-2.188,1.744l1.305-1.149c0.301-0.265,0.415-0.682,0.29-1.063&#xd;&#xa;&#x9;c-0.125-0.38-0.464-0.648-0.863-0.684c-4.099-0.358-4.105-0.358-4.135-0.358c-0.245,0-0.481,0.089-0.665,0.252&#xd;&#xa;&#x9;c-0.205,0.183-0.327,0.444-0.334,0.713c-0.003,0.077-0.046,1.89,2.046,3.349c0.168,0.117,0.366,0.179,0.571,0.179&#xd;&#xa;&#x9;c0.243,0,0.478-0.089,0.661-0.25l0.373-0.328c-0.071,0.107-0.121,0.228-0.146,0.356l-0.508,2.559&#xd;&#xa;&#x9;c-0.434,0.081-1.134,0.17-2.116,0.17c-0.591,0-1.22-0.032-1.966-0.099c-0.29,0-0.566,0.126-0.757,0.346&#xd;&#xa;&#x9;c-0.212,0.246-0.292,0.58-0.214,0.893c0.247,1.004,0.673,1.861,1.272,2.563c-1.759-0.265-3.974-1.039-6.236-2.967&#xd;&#xa;&#x9;c-0.181-0.155-0.411-0.24-0.649-0.24c-0.12,0-0.239,0.021-0.355,0.065c-0.341,0.13-0.584,0.435-0.635,0.795&#xd;&#xa;&#x9;c-0.437,3.089,0.866,7.096,3.166,9.744c1.272,1.466,2.813,2.515,4.523,3.093c-0.136,0.224-0.181,0.495-0.121,0.749&#xd;&#xa;&#x9;c0.005,0.019,0.47,1.983,1.307,3.953c0.686,1.61,2.315,2.65,4.151,2.65c0.093,0,0.188-0.003,0.284-0.009&#xd;&#xa;&#x9;c3.846-0.232,6.457-1.085,8.185-1.649c1.234-0.403,2.131-1.475,2.342-2.797l0.422-2.679c2.948-0.138,5.195-1.181,6.682-3.102&#xd;&#xa;&#x9;c1.071-1.384,1.62-3.062,1.854-4.761c0.007,1.692-0.36,3.277-1.1,4.564c-1.236,2.151-3.334,3.325-6.067,3.395&#xd;&#xa;&#x9;c-0.437,0.012-0.813,0.302-0.935,0.723l-1.802,6.243c-1.574,1.642-1.718,4.419-1.661,5.947c0.032,0.854,0.574,1.613,1.379,1.934&#xd;&#xa;&#x9;c1.477,0.588,4.5,1.575,8.151,1.575c2.543,0,4.94-0.485,7.125-1.441c0.78-0.341,1.295-1.121,1.312-1.99&#xd;&#xa;&#x9;c0.058-3.448-0.851-5.087-1.485-5.808l-0.179-3.17l0.255,2.877c0.018,0.202,0.096,0.392,0.225,0.549&#xd;&#xa;&#x9;c0.47,0.568,1.259,1.968,1.268,4.955c0,0.402,0.32,1.041,1.18,1.041c0.214,0,0.473-0.034,0.817-0.106&#xd;&#xa;&#x9;c0.518-0.112,0.86-0.609,0.778-1.133c-0.085-0.543-0.169-1.72,0.049-2.682c0.213-0.935,0.77-1.561,1.2-1.923&#xd;&#xa;&#x9;c0.226-0.19,0.355-0.469,0.355-0.765v-2.807c0-0.253-0.116-0.5-0.34-0.72c-0.182-0.174-0.454-0.278-0.728-0.278l-0.107,0.001&#xd;&#xa;&#x9;c-2.253-0.134-3.379-0.887-3.379-0.887c-0.172-0.126-0.376-0.192-0.59-0.192c-0.242,0-0.476,0.088-0.605,0.207&#xd;&#xa;&#x9;c-0.005,0.004-0.139,0.116-0.139,0.115c-0.16,0.146-0.267,0.342-0.307,0.552l-0.098-1.73c1.099-0.385,3.202-1.437,4.545-4.098&#xd;&#xa;&#x9;c-0.245,1.242-0.765,2.289-1.558,3.13c-0.245,0.261-0.332,0.636-0.227,0.979c0.104,0.344,0.388,0.605,0.737,0.684&#xd;&#xa;&#x9;c1.398,0.312,2.739,0.47,3.984,0.47c0.511,0,1.01-0.027,1.497-0.081c-0.841,0.23-1.425,0.293-1.44,0.294&#xd;&#xa;&#x9;c-0.515,0.052-0.903,0.479-0.903,0.996v3.771c-0.529,0.42-1.268,1.193-1.538,2.388c-0.38,1.668,0.058,3.283,0.076,3.349&#xd;&#xa;&#x9;c0.084,0.308,0.312,0.559,0.609,0.671c1.976,0.754,3.984,1.137,5.968,1.137c2.961,0,5.239-0.831,6.629-1.529&#xd;&#xa;&#x9;c0.98-0.493,1.505-1.626,1.274-2.756l-0.839-4.1l1.418-1.419c1.035-1.032,1.769-2.257,2.123-3.541&#xd;&#xa;&#x9;c1.12-4.071,1.237-7.259,0.379-10.335C65.697,33.865,61.671,31.382,61.5,31.279z M29.167,37.4l0.771-2.075&#xd;&#xa;&#x9;c0.069-0.185,0.224-0.246,0.277-0.249c0.199,0.246,0.301,0.479,0.302,0.693C30.523,36.482,29.807,37.043,29.167,37.4z"/>
 <path stroke-opacity="0.15" fill-opacity="0.15" d="M18.041,30.399c0.086,0.06,0.187,0.09,0.286,0.09c0.119,0,0.236-0.042,0.331-0.125l2.43-2.14&#xd;&#xa;&#x9;c0.15-0.132,0.207-0.341,0.145-0.531c-0.063-0.19-0.232-0.324-0.432-0.342c0,0-4.077-0.356-4.092-0.356&#xd;&#xa;&#x9;c-0.122,0-0.24,0.044-0.332,0.126c-0.103,0.091-0.164,0.221-0.167,0.358C16.207,27.545,16.18,29.102,18.041,30.399z M28.721,54.478&#xd;&#xa;&#x9;c-0.093-0.079-0.208-0.119-0.324-0.119c-0.091,0-0.184,0.025-0.265,0.076c-0.21,0.131-0.443,0.239-0.689,0.32&#xd;&#xa;&#x9;c-1.861,0.608-5.87,1.11-6.069,1.127c0,0-0.163-0.006-0.171-0.006c-0.169,0-0.328,0.086-0.42,0.229&#xd;&#xa;&#x9;c-0.097,0.15-0.106,0.342-0.023,0.501l0.917,1.768c-0.597,1.41,0.232,2.565,0.643,3.137c0.319,0.443,0.851,0.708,1.424,0.708&#xd;&#xa;&#x9;c0.106,0,0.213-0.01,0.321-0.028c0.414-0.071,0.704-0.114,0.922-0.146c0.724-0.106,0.783-0.128,1.667-0.616&#xd;&#xa;&#x9;c0.163-0.09,0.263-0.263,0.258-0.449c-0.033-1.386,0.09-3.413,1.53-5.007c0.038-0.042,0.068-0.09,0.09-0.142l0.327-0.779&#xd;&#xa;&#x9;C28.943,54.851,28.887,54.618,28.721,54.478z M50.211,54.829v-2.807c0-0.136-0.089-0.264-0.186-0.358&#xd;&#xa;&#x9;c-0.094-0.09-0.25-0.14-0.382-0.14c-0.006,0-0.137,0-0.137,0c-2.44-0.145-3.636-0.976-3.646-0.982&#xd;&#xa;&#x9;c-0.088-0.064-0.19-0.096-0.294-0.096c-0.117,0-0.234,0.041-0.328,0.123c-0.003,0.002-0.075,0.065-0.078,0.068&#xd;&#xa;&#x9;c-0.115,0.105-0.175,0.258-0.161,0.413l0.337,3.798c0.009,0.101,0.048,0.196,0.112,0.274c0.513,0.62,1.373,2.13,1.382,5.273&#xd;&#xa;&#x9;c0,0.022,0.017,0.541,0.68,0.541c0.176,0,0.408-0.031,0.712-0.096c0.259-0.056,0.431-0.304,0.39-0.566&#xd;&#xa;&#x9;c-0.09-0.578-0.18-1.833,0.056-2.87c0.243-1.068,0.876-1.782,1.365-2.193C50.146,55.117,50.211,54.977,50.211,54.829z&#xd;&#xa;&#x9; M72.814,41.142c-0.085-0.17-0.258-0.277-0.447-0.277c-0.006,0-0.012,0-0.018,0c-0.195,0.007-0.369,0.127-0.444,0.308&#xd;&#xa;&#x9;c-0.488,1.179-0.725,1.657-1.694,1.657c-0.247,0-0.501-0.038-0.753-0.112c-0.047-0.014-0.094-0.021-0.142-0.021&#xd;&#xa;&#x9;c-0.108,0-0.215,0.035-0.303,0.103c-0.127,0.097-0.2,0.248-0.197,0.407c0.02,0.977-0.048,1.977-0.206,3.056&#xd;&#xa;&#x9;c-0.021,0.146,0.023,0.295,0.122,0.405c0.095,0.106,0.23,0.167,0.373,0.167h0.016c2.077-0.066,3.069-1.013,3.536-1.795&#xd;&#xa;&#x9;C73.498,43.633,73.212,41.938,72.814,41.142z M61.241,31.707c-0.08-0.048-0.169-0.072-0.259-0.072c-0.109,0-0.219,0.036-0.309,0.107&#xd;&#xa;&#x9;c-0.164,0.128-0.23,0.345-0.168,0.543c0.007,0.022,0.487,1.583,0.496,3.571c-0.341-1.792-0.957-3.93-2.07-5.698&#xd;&#xa;&#x9;c-4.002-6.357-9.657-9.584-13.697-11.172c-1.535-0.604-3.15-0.911-4.799-0.911c-1.578,0-3.119,0.282-4.583,0.838&#xd;&#xa;&#x9;c-5.09,1.934-8.222,4.714-8.353,4.832c-0.181,0.163-0.219,0.432-0.089,0.638l0.645,1.02l-5.21-3.468&#xd;&#xa;&#x9;c-0.085-0.057-0.181-0.084-0.276-0.084c-0.157,0-0.312,0.074-0.409,0.211c-0.65,0.922-0.882,2.01-0.668,3.148&#xd;&#xa;&#x9;c0.222,1.18,0.869,2.196,1.543,2.85l-3.151,2.511c-0.093,0.074-0.156,0.178-0.179,0.294l-0.572,2.882&#xd;&#xa;&#x9;c-0.391,0.095-1.229,0.25-2.542,0.25c-0.604,0-1.249-0.032-1.918-0.097c-0.016-0.001-0.032-0.002-0.048-0.002&#xd;&#xa;&#x9;c-0.145,0-0.283,0.063-0.378,0.173c-0.106,0.123-0.146,0.289-0.107,0.446c0.418,1.706,1.346,2.711,2.242,3.3&#xd;&#xa;&#x9;c-1.997-0.022-4.97-0.609-8.016-3.206c-0.092-0.079-0.207-0.12-0.324-0.12c-0.06,0-0.12,0.011-0.177,0.032&#xd;&#xa;&#x9;c-0.17,0.065-0.292,0.217-0.318,0.398c-0.417,2.956,0.836,6.8,3.048,9.346c1.642,1.892,3.706,3.033,6.028,3.351&#xd;&#xa;&#x9;c-0.476,0.083-0.864,0.091-1.012,0.091h-0.016c-0.151,0-0.294,0.068-0.389,0.186c-0.098,0.12-0.134,0.279-0.098,0.43&#xd;&#xa;&#x9;c0.019,0.08,0.471,1.967,1.279,3.87c0.607,1.426,2.056,2.347,3.691,2.347c0.084,0,0.168-0.003,0.253-0.008&#xd;&#xa;&#x9;c3.78-0.229,6.355-1.069,8.06-1.626c1.055-0.345,1.822-1.264,2.003-2.399l0.487-3.087c2.998-0.053,5.256-1.035,6.716-2.921&#xd;&#xa;&#x9;c2.163-2.794,2.052-6.93,1.678-9.594c1.456,3.492,1.448,7.267-0.096,9.952c-1.328,2.311-3.571,3.571-6.487,3.646&#xd;&#xa;&#x9;c-0.218,0.006-0.407,0.152-0.468,0.361l-1.837,6.365c-1.523,1.489-1.662,4.177-1.606,5.668c0.025,0.657,0.443,1.24,1.064,1.487&#xd;&#xa;&#x9;c1.444,0.575,4.399,1.54,7.966,1.54c2.473,0,4.803-0.471,6.925-1.399c0.602-0.263,0.999-0.866,1.012-1.54&#xd;&#xa;&#x9;c0.061-3.646-1.006-5.12-1.475-5.591l-0.376-6.665c1.268-0.352,4.772-1.802,5.617-7.174c0.278,2.159,0.165,4.884-1.744,6.909&#xd;&#xa;&#x9;c-0.123,0.131-0.166,0.317-0.113,0.489s0.193,0.303,0.368,0.342c1.362,0.304,2.666,0.458,3.876,0.458&#xd;&#xa;&#x9;c3.044,0,5.126-0.975,6.526-1.957c-2.411,2.74-6.373,3.164-6.421,3.168c-0.257,0.025-0.452,0.241-0.452,0.498v4.022&#xd;&#xa;&#x9;c-0.436,0.305-1.274,1.029-1.551,2.248c-0.35,1.536,0.054,3.043,0.071,3.106c0.042,0.154,0.155,0.278,0.305,0.335&#xd;&#xa;&#x9;c1.92,0.732,3.868,1.104,5.79,1.104c2.861,0,5.062-0.802,6.404-1.476c0.78-0.393,1.194-1.301,1.009-2.209L62.69,54.23l1.608-1.609&#xd;&#xa;&#x9;c0.973-0.971,1.663-2.119,1.994-3.32c1.095-3.979,1.212-7.084,0.38-10.068C65.27,34.194,61.405,31.806,61.241,31.707z&#xd;&#xa;&#x9; M28.908,38.092c-0.039,0.018-0.077,0.027-0.112,0.027c-0.082,0-0.165-0.048-0.221-0.129c-0.039-0.056-0.096-0.173-0.039-0.327&#xd;&#xa;&#x9;l0.934-2.512c0.142-0.379,0.486-0.577,0.752-0.577c0.152,0,0.28,0.063,0.381,0.188c0.272,0.337,0.412,0.675,0.414,1.005&#xd;&#xa;&#x9;C31.026,36.888,29.875,37.65,28.908,38.092z"/>
 <linearGradient id="SVGID_1_" y1="62.4248" x1="40.333" y2="17.5757" gradientUnits="userSpaceOnUse" x2="40.333">
  <stop offset="0" style="stop-color:#C86228"/>
  <stop offset="0.497" style="stop-color:#F19C3E"/>
  <stop offset="0.5731" style="stop-color:#F3A345"/>
  <stop offset="0.8182" style="stop-color:#F8B759"/>
  <stop offset="0.9636" style="stop-color:#FABF60"/>
 </linearGradient>
 <path fill="url(#SVGID_1_)" d="M16.708,26.495l4.048,0.354l-2.43,2.14C16.667,27.832,16.708,26.495,16.708,26.495z M69.316,42.198&#xd;&#xa;&#x9;c0.02,1.002-0.051,2.04-0.211,3.138c3.952-0.126,3.916-3.66,3.262-4.971c-0.478,1.153-0.83,1.966-2.156,1.966&#xd;&#xa;&#x9;C69.899,42.331,69.601,42.282,69.316,42.198z M45.567,49.946c-0.022,0.02-0.047,0.04-0.069,0.061l0.337,3.798&#xd;&#xa;&#x9;c0.61,0.739,1.487,2.365,1.496,5.584c0,0,0.002,0.131,0.787-0.036c-0.104-0.666-0.184-1.974,0.063-3.058&#xd;&#xa;&#x9;c0.273-1.204,0.982-2.005,1.53-2.466v-2.325v-0.481c-0.077,0.001-0.155,0.007-0.233,0.001&#xd;&#xa;&#x9;C46.832,50.867,45.567,49.946,45.567,49.946z M21.203,55.376l1.032,1.988c-0.636,1.192-0.013,2.153,0.49,2.854&#xd;&#xa;&#x9;c0.282,0.392,0.777,0.562,1.254,0.479c1.728-0.3,1.328-0.098,2.433-0.707c-0.038-1.591,0.161-3.695,1.659-5.354l0.327-0.779&#xd;&#xa;&#x9;c-0.247,0.154-0.515,0.278-0.798,0.372c-1.94,0.634-6.122,1.151-6.225,1.151C21.317,55.382,21.26,55.379,21.203,55.376z&#xd;&#xa;&#x9; M18.548,46.192C10.952,46.616,7.4,38.527,8.041,33.991c4.261,3.633,8.409,3.441,9.867,3.23c0.125-0.019,0.131-0.193,0.011-0.229&#xd;&#xa;&#x9;c-0.905-0.277-2.688-1.124-3.294-3.594c3.386,0.326,4.939-0.254,4.939-0.254l0.631-3.182l3.601-2.869l0.075,0.006&#xd;&#xa;&#x9;c-1.302-0.863-2.866-3.533-1.302-5.748l6.88,4.579c0.068,0.046,0.146-0.044,0.09-0.103l-1.705-2.71c0,0,3.134-2.813,8.196-4.736&#xd;&#xa;&#x9;c2.904-1.103,6.131-1.066,9.021,0.071c3.89,1.529,9.501,4.689,13.457,10.973c1.853,2.943,2.284,7.01,2.382,8.485&#xd;&#xa;&#x9;c0.006,0.118,0.17,0.143,0.203,0.03c0.984-3.34-0.111-6.805-0.111-6.805s3.843,2.326,5.209,7.232&#xd;&#xa;&#x9;c0.822,2.95,0.682,5.942-0.381,9.801c-0.325,1.18-0.998,2.234-1.865,3.1l-1.799,1.8l0.946,4.627c0.136,0.661-0.14,1.358-0.743,1.662&#xd;&#xa;&#x9;c-1.849,0.927-6.2,2.483-11.792,0.352c0,0-0.392-1.432-0.066-2.864s1.563-2.083,1.563-2.083v-4.298c0,0,6.049-0.581,8.064-5.441&#xd;&#xa;&#x9;c0.052-0.124-0.091-0.248-0.188-0.155c-1.397,1.315-4.504,4.569-11.796,2.941c3.19-3.386,1.683-8.57,1.272-10.269&#xd;&#xa;&#x9;c-0.029-0.118-0.216-0.136-0.214-0.017c0.243,9.048-5.819,9.815-5.819,9.815l0.412,7.293c0,0,1.532,1.086,1.462,5.348&#xd;&#xa;&#x9;c-0.009,0.471-0.282,0.902-0.712,1.09c-6.182,2.703-12.452,0.671-14.506-0.147c-0.431-0.171-0.732-0.577-0.75-1.041&#xd;&#xa;&#x9;c-0.049-1.31,0.05-4.026,1.549-5.379l1.875-6.497c7.811-0.199,10.222-8.659,6.321-15.766c-0.14-0.253-0.294-0.498-0.501-0.698&#xd;&#xa;&#x9;c-0.064-0.064-0.221,0.024-0.198,0.112c0.615,2.375,3.037,14.399-7.874,14.27l-0.553,3.508c-0.146,0.923-0.775,1.712-1.664,2.002&#xd;&#xa;&#x9;c-1.689,0.552-4.223,1.378-7.935,1.603c-1.465,0.087-2.879-0.687-3.454-2.036c-0.801-1.886-1.253-3.789-1.253-3.789&#xd;&#xa;&#x9;s1.724,0.048,3.006-0.806C18.693,46.339,18.663,46.186,18.548,46.192z M29.117,37.546c1.126-0.515,2.411-1.404,2.402-2.784&#xd;&#xa;&#x9;c-0.003-0.508-0.231-0.952-0.525-1.316c-0.579-0.714-1.669-0.33-1.991,0.529l-0.935,2.513&#xd;&#xa;&#x9;C27.817,37.162,28.463,37.846,29.117,37.546z"/>
</svg>
